<svg xmlns="http://www.w3.org/2000/svg" xmlns:xlink="http://www.w3.org/1999/xlink" width="500" zoomAndPan="magnify" viewBox="0 0 375 374.999991" height="500" preserveAspectRatio="xMidYMid meet" version="1.0"><path fill="#000000" d="M 366.054688 105.089844 C 366.53125 105.21875 367.011719 105.292969 367.503906 105.308594 C 367.992188 105.328125 368.480469 105.289062 368.960938 105.195312 C 369.441406 105.097656 369.90625 104.949219 370.355469 104.75 C 370.800781 104.546875 371.222656 104.296875 371.613281 104 C 372 103.703125 372.351562 103.363281 372.664062 102.984375 C 372.976562 102.605469 373.242188 102.195312 373.457031 101.753906 C 373.675781 101.316406 373.839844 100.855469 373.953125 100.378906 C 374.0625 99.898438 374.121094 99.414062 374.121094 98.925781 C 374.121094 98.433594 374.0625 97.949219 373.953125 97.472656 C 373.839844 96.992188 373.675781 96.535156 373.457031 96.09375 C 373.242188 95.652344 372.976562 95.246094 372.664062 94.867188 C 372.351562 94.484375 372 94.148438 371.613281 93.847656 C 371.222656 93.550781 370.800781 93.300781 370.355469 93.101562 C 369.90625 92.898438 369.441406 92.75 368.960938 92.65625 C 368.480469 92.5625 367.992188 92.523438 367.503906 92.539062 C 367.011719 92.558594 366.53125 92.632812 366.054688 92.761719 L 330.027344 92.761719 L 330.027344 51.171875 C 330.027344 50.75 329.984375 50.335938 329.902344 49.925781 C 329.820312 49.511719 329.699219 49.113281 329.539062 48.726562 C 329.378906 48.339844 329.183594 47.972656 328.949219 47.621094 C 328.714844 47.273438 328.449219 46.949219 328.15625 46.652344 C 327.859375 46.355469 327.535156 46.09375 327.1875 45.859375 C 326.835938 45.625 326.46875 45.429688 326.082031 45.269531 C 325.695312 45.109375 325.292969 44.988281 324.882812 44.90625 C 324.472656 44.824219 324.054688 44.78125 323.636719 44.78125 L 282.238281 44.78125 L 282.238281 8.945312 C 282.328125 8.703125 282.398438 8.457031 282.457031 8.210938 C 282.515625 7.960938 282.558594 7.707031 282.585938 7.453125 C 282.613281 7.199219 282.625 6.945312 282.625 6.691406 C 282.621094 6.433594 282.601562 6.179688 282.566406 5.925781 C 282.535156 5.671875 282.484375 5.421875 282.421875 5.175781 C 282.359375 4.925781 282.28125 4.683594 282.1875 4.445312 C 282.09375 4.207031 281.988281 3.976562 281.867188 3.75 C 281.746094 3.523438 281.613281 3.308594 281.464844 3.097656 C 281.320312 2.886719 281.160156 2.6875 280.992188 2.496094 C 280.820312 2.308594 280.636719 2.128906 280.445312 1.960938 C 280.253906 1.792969 280.050781 1.636719 279.839844 1.492188 C 279.628906 1.347656 279.410156 1.214844 279.183594 1.097656 C 278.957031 0.980469 278.722656 0.875 278.484375 0.785156 C 278.246094 0.695312 278 0.621094 277.753906 0.558594 C 277.503906 0.496094 277.253906 0.453125 277 0.421875 C 276.746094 0.390625 276.492188 0.375 276.234375 0.375 C 275.980469 0.375 275.722656 0.390625 275.472656 0.421875 C 275.21875 0.453125 274.964844 0.496094 274.71875 0.558594 C 274.46875 0.621094 274.226562 0.695312 273.984375 0.785156 C 273.746094 0.875 273.511719 0.980469 273.285156 1.097656 C 273.058594 1.214844 272.839844 1.347656 272.628906 1.492188 C 272.417969 1.636719 272.21875 1.792969 272.023438 1.960938 C 271.832031 2.128906 271.652344 2.308594 271.480469 2.496094 C 271.308594 2.6875 271.152344 2.886719 271.003906 3.097656 C 270.855469 3.308594 270.722656 3.523438 270.601562 3.75 C 270.480469 3.976562 270.375 4.207031 270.28125 4.445312 C 270.191406 4.683594 270.109375 4.925781 270.046875 5.175781 C 269.984375 5.421875 269.933594 5.671875 269.902344 5.925781 C 269.867188 6.179688 269.851562 6.433594 269.847656 6.691406 C 269.84375 6.945312 269.855469 7.199219 269.882812 7.453125 C 269.910156 7.707031 269.953125 7.960938 270.011719 8.210938 C 270.070312 8.457031 270.144531 8.703125 270.230469 8.945312 L 270.230469 44.972656 L 238.289062 44.972656 L 238.289062 8.945312 C 238.289062 8.523438 238.246094 8.109375 238.164062 7.699219 C 238.082031 7.285156 237.960938 6.886719 237.800781 6.5 C 237.640625 6.113281 237.445312 5.742188 237.210938 5.394531 C 236.976562 5.046875 236.714844 4.722656 236.417969 4.425781 C 236.121094 4.128906 235.796875 3.863281 235.449219 3.632812 C 235.101562 3.398438 234.730469 3.203125 234.34375 3.042969 C 233.957031 2.882812 233.558594 2.761719 233.144531 2.679688 C 232.734375 2.597656 232.320312 2.554688 231.898438 2.554688 C 231.480469 2.554688 231.066406 2.597656 230.652344 2.679688 C 230.242188 2.761719 229.84375 2.882812 229.453125 3.042969 C 229.066406 3.203125 228.699219 3.398438 228.351562 3.632812 C 228 3.863281 227.679688 4.128906 227.382812 4.425781 C 227.085938 4.722656 226.820312 5.046875 226.585938 5.394531 C 226.355469 5.742188 226.15625 6.113281 225.996094 6.5 C 225.835938 6.886719 225.714844 7.285156 225.632812 7.699219 C 225.550781 8.109375 225.511719 8.523438 225.511719 8.945312 L 225.511719 44.972656 L 193.570312 44.972656 L 193.570312 8.945312 C 193.570312 8.523438 193.527344 8.109375 193.445312 7.699219 C 193.363281 7.285156 193.242188 6.886719 193.082031 6.5 C 192.921875 6.113281 192.726562 5.742188 192.492188 5.394531 C 192.257812 5.046875 191.996094 4.722656 191.699219 4.425781 C 191.402344 4.128906 191.078125 3.863281 190.730469 3.632812 C 190.382812 3.398438 190.011719 3.203125 189.625 3.042969 C 189.238281 2.882812 188.839844 2.761719 188.425781 2.679688 C 188.015625 2.597656 187.601562 2.554688 187.179688 2.554688 C 186.761719 2.554688 186.34375 2.597656 185.933594 2.679688 C 185.523438 2.761719 185.125 2.882812 184.734375 3.042969 C 184.347656 3.203125 183.980469 3.398438 183.632812 3.632812 C 183.28125 3.863281 182.960938 4.128906 182.664062 4.425781 C 182.367188 4.722656 182.101562 5.046875 181.867188 5.394531 C 181.636719 5.742188 181.4375 6.113281 181.277344 6.5 C 181.117188 6.886719 180.996094 7.285156 180.914062 7.699219 C 180.832031 8.109375 180.792969 8.523438 180.792969 8.945312 L 180.792969 44.972656 L 148.851562 44.972656 L 148.851562 8.945312 C 148.980469 8.46875 149.050781 7.988281 149.070312 7.496094 C 149.085938 7.007812 149.046875 6.519531 148.953125 6.039062 C 148.859375 5.558594 148.710938 5.09375 148.511719 4.644531 C 148.308594 4.195312 148.058594 3.777344 147.761719 3.386719 C 147.460938 3 147.125 2.648438 146.746094 2.335938 C 146.367188 2.023438 145.957031 1.757812 145.515625 1.542969 C 145.074219 1.324219 144.617188 1.160156 144.136719 1.046875 C 143.660156 0.9375 143.175781 0.878906 142.683594 0.878906 C 142.195312 0.878906 141.710938 0.9375 141.230469 1.046875 C 140.753906 1.160156 140.292969 1.324219 139.855469 1.542969 C 139.414062 1.757812 139.003906 2.023438 138.625 2.335938 C 138.246094 2.648438 137.910156 3 137.609375 3.386719 C 137.3125 3.777344 137.0625 4.195312 136.859375 4.644531 C 136.660156 5.09375 136.511719 5.558594 136.417969 6.039062 C 136.320312 6.519531 136.285156 7.007812 136.300781 7.496094 C 136.320312 7.988281 136.390625 8.46875 136.519531 8.945312 L 136.519531 44.972656 L 104.578125 44.972656 L 104.578125 8.945312 C 104.707031 8.46875 104.78125 7.988281 104.796875 7.496094 C 104.816406 7.007812 104.777344 6.519531 104.683594 6.039062 C 104.589844 5.558594 104.441406 5.09375 104.238281 4.644531 C 104.035156 4.195312 103.785156 3.777344 103.488281 3.386719 C 103.191406 3 102.851562 2.648438 102.472656 2.335938 C 102.09375 2.023438 101.683594 1.757812 101.242188 1.542969 C 100.804688 1.324219 100.34375 1.160156 99.867188 1.046875 C 99.390625 0.9375 98.90625 0.878906 98.414062 0.878906 C 97.921875 0.878906 97.4375 0.9375 96.960938 1.046875 C 96.480469 1.160156 96.023438 1.324219 95.582031 1.542969 C 95.144531 1.757812 94.734375 2.023438 94.355469 2.335938 C 93.976562 2.648438 93.636719 3 93.339844 3.386719 C 93.039062 3.777344 92.789062 4.195312 92.589844 4.644531 C 92.386719 5.09375 92.238281 5.558594 92.144531 6.039062 C 92.050781 6.519531 92.011719 7.007812 92.027344 7.496094 C 92.046875 7.988281 92.121094 8.46875 92.25 8.945312 L 92.25 44.972656 L 50.53125 44.972656 C 50.113281 44.972656 49.699219 45.015625 49.285156 45.097656 C 48.875 45.179688 48.476562 45.300781 48.085938 45.460938 C 47.699219 45.621094 47.332031 45.816406 46.984375 46.050781 C 46.632812 46.285156 46.3125 46.550781 46.015625 46.84375 C 45.71875 47.140625 45.453125 47.464844 45.21875 47.8125 C 44.988281 48.164062 44.789062 48.53125 44.628906 48.917969 C 44.46875 49.304688 44.347656 49.707031 44.265625 50.117188 C 44.183594 50.527344 44.144531 50.945312 44.144531 51.363281 L 44.144531 92.953125 L 8.304688 92.953125 C 7.832031 92.824219 7.347656 92.75 6.859375 92.730469 C 6.367188 92.714844 5.882812 92.753906 5.398438 92.847656 C 4.917969 92.941406 4.453125 93.089844 4.007812 93.292969 C 3.558594 93.492188 3.140625 93.742188 2.75 94.042969 C 2.359375 94.339844 2.007812 94.679688 1.695312 95.058594 C 1.382812 95.4375 1.121094 95.84375 0.902344 96.285156 C 0.683594 96.726562 0.519531 97.183594 0.410156 97.664062 C 0.296875 98.140625 0.242188 98.625 0.242188 99.117188 C 0.242188 99.605469 0.296875 100.089844 0.410156 100.570312 C 0.519531 101.046875 0.683594 101.507812 0.902344 101.945312 C 1.121094 102.386719 1.382812 102.796875 1.695312 103.175781 C 2.007812 103.554688 2.359375 103.894531 2.75 104.191406 C 3.140625 104.488281 3.558594 104.738281 4.007812 104.941406 C 4.453125 105.144531 4.917969 105.289062 5.398438 105.386719 C 5.882812 105.480469 6.367188 105.519531 6.859375 105.5 C 7.347656 105.484375 7.832031 105.410156 8.304688 105.28125 L 44.335938 105.28125 L 44.335938 137.222656 L 8.304688 137.222656 C 7.828125 137.085938 7.34375 137.003906 6.847656 136.976562 C 6.351562 136.949219 5.859375 136.980469 5.375 137.070312 C 4.886719 137.160156 4.414062 137.304688 3.960938 137.5 C 3.503906 137.699219 3.078125 137.949219 2.683594 138.246094 C 2.285156 138.542969 1.929688 138.882812 1.613281 139.261719 C 1.292969 139.644531 1.023438 140.054688 0.800781 140.5 C 0.582031 140.941406 0.414062 141.40625 0.296875 141.886719 C 0.183594 142.371094 0.128906 142.859375 0.128906 143.355469 C 0.128906 143.851562 0.183594 144.339844 0.296875 144.824219 C 0.414062 145.304688 0.582031 145.769531 0.800781 146.214844 C 1.023438 146.65625 1.292969 147.070312 1.613281 147.449219 C 1.929688 147.832031 2.285156 148.167969 2.683594 148.464844 C 3.078125 148.765625 3.503906 149.011719 3.960938 149.210938 C 4.414062 149.410156 4.886719 149.550781 5.375 149.640625 C 5.859375 149.730469 6.351562 149.761719 6.847656 149.734375 C 7.34375 149.710938 7.828125 149.628906 8.304688 149.488281 L 44.335938 149.488281 L 44.335938 181.429688 L 8.304688 181.429688 C 7.886719 181.429688 7.46875 181.472656 7.058594 181.554688 C 6.648438 181.636719 6.246094 181.757812 5.859375 181.917969 C 5.472656 182.078125 5.105469 182.273438 4.753906 182.507812 C 4.40625 182.742188 4.085938 183.003906 3.789062 183.300781 C 3.492188 183.597656 3.226562 183.921875 2.992188 184.269531 C 2.761719 184.617188 2.5625 184.988281 2.402344 185.375 C 2.242188 185.761719 2.121094 186.160156 2.039062 186.574219 C 1.957031 186.984375 1.917969 187.398438 1.917969 187.820312 C 1.917969 188.238281 1.957031 188.652344 2.039062 189.066406 C 2.121094 189.476562 2.242188 189.875 2.402344 190.265625 C 2.5625 190.652344 2.761719 191.019531 2.992188 191.367188 C 3.226562 191.71875 3.492188 192.039062 3.789062 192.335938 C 4.085938 192.632812 4.40625 192.898438 4.753906 193.132812 C 5.105469 193.363281 5.472656 193.5625 5.859375 193.722656 C 6.246094 193.882812 6.648438 194.003906 7.058594 194.085938 C 7.46875 194.167969 7.886719 194.207031 8.304688 194.207031 L 44.335938 194.207031 L 44.335938 226.148438 L 8.304688 226.148438 C 7.832031 226.019531 7.347656 225.949219 6.859375 225.929688 C 6.367188 225.914062 5.882812 225.953125 5.398438 226.046875 C 4.917969 226.140625 4.453125 226.289062 4.007812 226.488281 C 3.558594 226.691406 3.140625 226.941406 2.75 227.238281 C 2.359375 227.539062 2.007812 227.875 1.695312 228.253906 C 1.382812 228.632812 1.121094 229.042969 0.902344 229.484375 C 0.683594 229.925781 0.519531 230.382812 0.410156 230.859375 C 0.296875 231.339844 0.242188 231.824219 0.242188 232.316406 C 0.242188 232.804688 0.296875 233.289062 0.410156 233.769531 C 0.519531 234.246094 0.683594 234.707031 0.902344 235.144531 C 1.121094 235.585938 1.382812 235.996094 1.695312 236.375 C 2.007812 236.753906 2.359375 237.089844 2.75 237.390625 C 3.140625 237.6875 3.558594 237.9375 4.007812 238.140625 C 4.453125 238.339844 4.917969 238.488281 5.398438 238.582031 C 5.882812 238.679688 6.367188 238.714844 6.859375 238.699219 C 7.347656 238.679688 7.832031 238.609375 8.304688 238.480469 L 44.335938 238.480469 L 44.335938 270.421875 L 8.304688 270.421875 C 7.832031 270.292969 7.347656 270.21875 6.859375 270.203125 C 6.367188 270.183594 5.882812 270.222656 5.398438 270.316406 C 4.917969 270.410156 4.453125 270.558594 4.007812 270.761719 C 3.558594 270.964844 3.140625 271.214844 2.75 271.511719 C 2.359375 271.808594 2.007812 272.148438 1.695312 272.527344 C 1.382812 272.90625 1.121094 273.316406 0.902344 273.753906 C 0.683594 274.195312 0.519531 274.65625 0.410156 275.132812 C 0.296875 275.609375 0.242188 276.09375 0.242188 276.585938 C 0.242188 277.078125 0.296875 277.5625 0.410156 278.039062 C 0.519531 278.519531 0.683594 278.976562 0.902344 279.417969 C 1.121094 279.855469 1.382812 280.265625 1.695312 280.644531 C 2.007812 281.023438 2.359375 281.363281 2.75 281.660156 C 3.140625 281.960938 3.558594 282.210938 4.007812 282.410156 C 4.453125 282.613281 4.917969 282.761719 5.398438 282.855469 C 5.882812 282.949219 6.367188 282.988281 6.859375 282.96875 C 7.347656 282.953125 7.832031 282.878906 8.304688 282.75 L 44.335938 282.75 L 44.335938 324.339844 C 44.335938 324.757812 44.375 325.175781 44.457031 325.585938 C 44.539062 325.996094 44.660156 326.398438 44.820312 326.785156 C 44.980469 327.171875 45.179688 327.539062 45.414062 327.890625 C 45.644531 328.238281 45.910156 328.558594 46.207031 328.855469 C 46.503906 329.152344 46.824219 329.417969 47.175781 329.652344 C 47.523438 329.882812 47.890625 330.082031 48.277344 330.242188 C 48.667969 330.402344 49.066406 330.523438 49.476562 330.605469 C 49.890625 330.6875 50.304688 330.726562 50.722656 330.726562 L 92.3125 330.726562 L 92.3125 366.695312 C 92.183594 367.167969 92.109375 367.652344 92.09375 368.140625 C 92.074219 368.632812 92.113281 369.117188 92.207031 369.601562 C 92.304688 370.082031 92.449219 370.546875 92.652344 370.992188 C 92.855469 371.441406 93.105469 371.859375 93.402344 372.25 C 93.699219 372.640625 94.039062 372.992188 94.417969 373.304688 C 94.796875 373.613281 95.207031 373.878906 95.648438 374.097656 C 96.085938 374.316406 96.546875 374.480469 97.023438 374.589844 C 97.503906 374.703125 97.988281 374.757812 98.476562 374.757812 C 98.96875 374.757812 99.453125 374.703125 99.929688 374.589844 C 100.410156 374.480469 100.867188 374.316406 101.308594 374.097656 C 101.75 373.878906 102.15625 373.613281 102.535156 373.304688 C 102.914062 372.992188 103.253906 372.640625 103.550781 372.25 C 103.851562 371.859375 104.101562 371.441406 104.300781 370.992188 C 104.503906 370.546875 104.652344 370.082031 104.746094 369.601562 C 104.839844 369.117188 104.878906 368.632812 104.863281 368.140625 C 104.84375 367.652344 104.769531 367.167969 104.640625 366.695312 L 104.640625 330.664062 L 136.585938 330.664062 L 136.585938 366.695312 C 136.445312 367.171875 136.363281 367.65625 136.335938 368.152344 C 136.3125 368.648438 136.34375 369.136719 136.433594 369.625 C 136.519531 370.113281 136.664062 370.585938 136.863281 371.039062 C 137.0625 371.496094 137.308594 371.921875 137.605469 372.316406 C 137.902344 372.714844 138.242188 373.070312 138.625 373.386719 C 139.003906 373.707031 139.417969 373.976562 139.859375 374.199219 C 140.304688 374.417969 140.765625 374.585938 141.25 374.703125 C 141.730469 374.816406 142.222656 374.871094 142.71875 374.871094 C 143.214844 374.871094 143.703125 374.816406 144.183594 374.703125 C 144.667969 374.585938 145.128906 374.417969 145.574219 374.199219 C 146.019531 373.976562 146.429688 373.707031 146.8125 373.386719 C 147.191406 373.070312 147.53125 372.714844 147.828125 372.316406 C 148.125 371.921875 148.375 371.496094 148.570312 371.039062 C 148.769531 370.585938 148.914062 370.113281 149.003906 369.625 C 149.089844 369.140625 149.121094 368.648438 149.097656 368.152344 C 149.070312 367.65625 148.988281 367.171875 148.851562 366.695312 L 148.851562 330.664062 L 180.792969 330.664062 L 180.792969 366.695312 C 180.792969 367.113281 180.832031 367.53125 180.914062 367.941406 C 180.996094 368.351562 181.117188 368.753906 181.277344 369.140625 C 181.4375 369.527344 181.636719 369.894531 181.867188 370.246094 C 182.101562 370.59375 182.367188 370.914062 182.664062 371.210938 C 182.960938 371.507812 183.28125 371.773438 183.632812 372.007812 C 183.980469 372.238281 184.347656 372.4375 184.734375 372.597656 C 185.125 372.757812 185.523438 372.878906 185.933594 372.960938 C 186.34375 373.042969 186.761719 373.082031 187.179688 373.082031 C 187.601562 373.082031 188.015625 373.042969 188.425781 372.960938 C 188.839844 372.878906 189.238281 372.757812 189.625 372.597656 C 190.011719 372.4375 190.382812 372.238281 190.730469 372.007812 C 191.078125 371.773438 191.402344 371.507812 191.699219 371.210938 C 191.996094 370.914062 192.257812 370.59375 192.492188 370.246094 C 192.726562 369.894531 192.921875 369.527344 193.082031 369.140625 C 193.242188 368.753906 193.363281 368.351562 193.445312 367.941406 C 193.527344 367.53125 193.570312 367.113281 193.570312 366.695312 L 193.570312 330.664062 L 225.511719 330.664062 L 225.511719 366.695312 C 225.382812 367.167969 225.308594 367.652344 225.292969 368.140625 C 225.273438 368.632812 225.3125 369.117188 225.40625 369.601562 C 225.5 370.082031 225.648438 370.546875 225.851562 370.992188 C 226.050781 371.441406 226.300781 371.859375 226.601562 372.25 C 226.898438 372.640625 227.238281 372.992188 227.617188 373.304688 C 227.996094 373.613281 228.40625 373.878906 228.84375 374.097656 C 229.285156 374.316406 229.746094 374.480469 230.222656 374.589844 C 230.699219 374.703125 231.183594 374.757812 231.675781 374.757812 C 232.167969 374.757812 232.652344 374.703125 233.128906 374.589844 C 233.605469 374.480469 234.066406 374.316406 234.507812 374.097656 C 234.945312 373.878906 235.355469 373.613281 235.734375 373.304688 C 236.113281 372.992188 236.453125 372.640625 236.75 372.25 C 237.050781 371.859375 237.300781 371.441406 237.5 370.992188 C 237.703125 370.546875 237.851562 370.082031 237.945312 369.601562 C 238.039062 369.117188 238.078125 368.632812 238.058594 368.140625 C 238.042969 367.652344 237.96875 367.167969 237.839844 366.695312 L 237.839844 330.664062 L 269.78125 330.664062 L 269.78125 366.695312 C 269.652344 367.167969 269.582031 367.652344 269.5625 368.140625 C 269.546875 368.632812 269.585938 369.117188 269.679688 369.601562 C 269.773438 370.082031 269.921875 370.546875 270.121094 370.992188 C 270.324219 371.441406 270.574219 371.859375 270.871094 372.25 C 271.171875 372.640625 271.507812 372.992188 271.886719 373.304688 C 272.265625 373.613281 272.675781 373.878906 273.117188 374.097656 C 273.558594 374.316406 274.015625 374.480469 274.496094 374.589844 C 274.972656 374.703125 275.457031 374.757812 275.949219 374.757812 C 276.4375 374.757812 276.921875 374.703125 277.402344 374.589844 C 277.878906 374.480469 278.339844 374.316406 278.777344 374.097656 C 279.21875 373.878906 279.628906 373.613281 280.007812 373.304688 C 280.386719 372.992188 280.726562 372.640625 281.023438 372.25 C 281.320312 371.859375 281.570312 371.441406 281.773438 370.992188 C 281.972656 370.546875 282.121094 370.082031 282.214844 369.601562 C 282.3125 369.117188 282.347656 368.632812 282.332031 368.140625 C 282.3125 367.652344 282.242188 367.167969 282.113281 366.695312 L 282.113281 330.664062 L 323.699219 330.664062 C 324.121094 330.664062 324.535156 330.625 324.949219 330.542969 C 325.359375 330.460938 325.757812 330.339844 326.144531 330.179688 C 326.535156 330.015625 326.902344 329.820312 327.25 329.585938 C 327.597656 329.355469 327.921875 329.089844 328.21875 328.792969 C 328.515625 328.496094 328.78125 328.175781 329.011719 327.824219 C 329.246094 327.476562 329.441406 327.109375 329.601562 326.71875 C 329.761719 326.332031 329.886719 325.933594 329.964844 325.523438 C 330.046875 325.109375 330.089844 324.695312 330.089844 324.277344 L 330.089844 282.878906 L 366.054688 282.878906 C 366.296875 282.964844 366.542969 283.039062 366.789062 283.097656 C 367.039062 283.15625 367.292969 283.199219 367.546875 283.226562 C 367.800781 283.253906 368.054688 283.265625 368.308594 283.261719 C 368.566406 283.257812 368.820312 283.242188 369.074219 283.207031 C 369.328125 283.171875 369.578125 283.125 369.824219 283.0625 C 370.074219 282.996094 370.316406 282.917969 370.554688 282.828125 C 370.792969 282.734375 371.023438 282.628906 371.25 282.507812 C 371.476562 282.386719 371.691406 282.253906 371.902344 282.105469 C 372.113281 281.957031 372.3125 281.800781 372.5 281.628906 C 372.691406 281.457031 372.871094 281.277344 373.039062 281.085938 C 373.207031 280.890625 373.363281 280.691406 373.507812 280.480469 C 373.652344 280.269531 373.785156 280.050781 373.902344 279.824219 C 374.019531 279.59375 374.125 279.363281 374.214844 279.125 C 374.304688 278.882812 374.378906 278.640625 374.441406 278.390625 C 374.503906 278.144531 374.546875 277.890625 374.578125 277.636719 C 374.609375 277.382812 374.625 277.128906 374.625 276.875 C 374.625 276.617188 374.609375 276.363281 374.578125 276.109375 C 374.546875 275.855469 374.503906 275.605469 374.441406 275.355469 C 374.378906 275.109375 374.304688 274.863281 374.214844 274.625 C 374.125 274.386719 374.019531 274.152344 373.902344 273.925781 C 373.785156 273.699219 373.652344 273.480469 373.507812 273.269531 C 373.363281 273.058594 373.207031 272.855469 373.039062 272.664062 C 372.871094 272.472656 372.691406 272.289062 372.5 272.117188 C 372.3125 271.949219 372.113281 271.789062 371.902344 271.640625 C 371.691406 271.496094 371.476562 271.363281 371.25 271.242188 C 371.023438 271.121094 370.792969 271.015625 370.554688 270.921875 C 370.316406 270.828125 370.074219 270.75 369.824219 270.6875 C 369.578125 270.621094 369.328125 270.574219 369.074219 270.539062 C 368.820312 270.507812 368.566406 270.488281 368.308594 270.484375 C 368.054688 270.484375 367.800781 270.496094 367.546875 270.523438 C 367.292969 270.550781 367.039062 270.59375 366.789062 270.652344 C 366.542969 270.710938 366.296875 270.78125 366.054688 270.867188 L 330.027344 270.867188 L 330.027344 238.925781 L 366.054688 238.925781 C 366.476562 238.925781 366.890625 238.886719 367.300781 238.804688 C 367.714844 238.722656 368.113281 238.601562 368.5 238.441406 C 368.886719 238.28125 369.257812 238.082031 369.605469 237.851562 C 369.953125 237.617188 370.277344 237.351562 370.574219 237.054688 C 370.871094 236.757812 371.136719 236.4375 371.367188 236.085938 C 371.601562 235.738281 371.796875 235.371094 371.957031 234.984375 C 372.117188 234.59375 372.238281 234.195312 372.320312 233.785156 C 372.402344 233.375 372.445312 232.957031 372.445312 232.539062 C 372.445312 232.117188 372.402344 231.703125 372.320312 231.292969 C 372.238281 230.878906 372.117188 230.480469 371.957031 230.09375 C 371.796875 229.707031 371.601562 229.335938 371.367188 228.988281 C 371.136719 228.640625 370.871094 228.316406 370.574219 228.019531 C 370.277344 227.722656 369.953125 227.460938 369.605469 227.226562 C 369.257812 226.992188 368.886719 226.796875 368.5 226.636719 C 368.113281 226.476562 367.714844 226.355469 367.300781 226.273438 C 366.890625 226.191406 366.476562 226.148438 366.054688 226.148438 L 330.027344 226.148438 L 330.027344 194.207031 L 366.054688 194.207031 C 366.476562 194.207031 366.890625 194.167969 367.300781 194.085938 C 367.714844 194.003906 368.113281 193.882812 368.5 193.722656 C 368.886719 193.5625 369.257812 193.363281 369.605469 193.132812 C 369.953125 192.898438 370.277344 192.632812 370.574219 192.335938 C 370.871094 192.039062 371.136719 191.71875 371.367188 191.367188 C 371.601562 191.019531 371.796875 190.652344 371.957031 190.265625 C 372.117188 189.875 372.238281 189.476562 372.320312 189.066406 C 372.402344 188.652344 372.445312 188.238281 372.445312 187.820312 C 372.445312 187.398438 372.402344 186.984375 372.320312 186.574219 C 372.238281 186.160156 372.117188 185.761719 371.957031 185.375 C 371.796875 184.988281 371.601562 184.617188 371.367188 184.269531 C 371.136719 183.921875 370.871094 183.597656 370.574219 183.300781 C 370.277344 183.003906 369.953125 182.742188 369.605469 182.507812 C 369.257812 182.273438 368.886719 182.078125 368.5 181.917969 C 368.113281 181.757812 367.714844 181.636719 367.300781 181.554688 C 366.890625 181.472656 366.476562 181.429688 366.054688 181.429688 L 330.027344 181.429688 L 330.027344 149.488281 L 366.054688 149.488281 C 366.53125 149.617188 367.011719 149.691406 367.503906 149.707031 C 367.992188 149.726562 368.480469 149.6875 368.960938 149.59375 C 369.441406 149.5 369.90625 149.351562 370.355469 149.148438 C 370.800781 148.949219 371.222656 148.699219 371.613281 148.398438 C 372 148.101562 372.351562 147.761719 372.664062 147.382812 C 372.976562 147.003906 373.242188 146.59375 373.457031 146.15625 C 373.675781 145.714844 373.839844 145.253906 373.953125 144.777344 C 374.0625 144.300781 374.121094 143.816406 374.121094 143.324219 C 374.121094 142.832031 374.0625 142.347656 373.953125 141.871094 C 373.839844 141.394531 373.675781 140.933594 373.457031 140.492188 C 373.242188 140.054688 372.976562 139.644531 372.664062 139.265625 C 372.351562 138.886719 372 138.546875 371.613281 138.25 C 371.222656 137.949219 370.800781 137.699219 370.355469 137.5 C 369.90625 137.296875 369.441406 137.148438 368.960938 137.054688 C 368.480469 136.960938 367.992188 136.921875 367.503906 136.941406 C 367.011719 136.957031 366.53125 137.03125 366.054688 137.160156 L 330.027344 137.160156 L 330.027344 105.21875 Z M 229.152344 113.714844 C 229.535156 113.714844 229.914062 113.75 230.285156 113.824219 C 230.660156 113.898438 231.023438 114.011719 231.378906 114.15625 C 231.730469 114.300781 232.066406 114.480469 232.382812 114.695312 C 232.699219 114.90625 232.992188 115.148438 233.261719 115.417969 C 233.53125 115.6875 233.773438 115.980469 233.984375 116.296875 C 234.199219 116.613281 234.378906 116.949219 234.523438 117.300781 C 234.667969 117.65625 234.78125 118.019531 234.855469 118.394531 C 234.929688 118.765625 234.964844 119.144531 234.964844 119.527344 C 234.964844 119.910156 234.929688 120.285156 234.855469 120.660156 C 234.78125 121.035156 234.667969 121.398438 234.523438 121.75 C 234.378906 122.105469 234.199219 122.441406 233.984375 122.757812 C 233.773438 123.074219 233.53125 123.367188 233.261719 123.636719 C 232.992188 123.90625 232.699219 124.148438 232.382812 124.359375 C 232.066406 124.574219 231.730469 124.753906 231.378906 124.898438 C 231.023438 125.042969 230.660156 125.15625 230.285156 125.230469 C 229.914062 125.304688 229.535156 125.339844 229.152344 125.339844 C 228.769531 125.339844 228.394531 125.304688 228.019531 125.230469 C 227.644531 125.15625 227.28125 125.042969 226.925781 124.898438 C 226.574219 124.753906 226.238281 124.574219 225.921875 124.359375 C 225.605469 124.148438 225.3125 123.90625 225.042969 123.636719 C 224.773438 123.367188 224.53125 123.074219 224.320312 122.757812 C 224.105469 122.441406 223.925781 122.105469 223.78125 121.75 C 223.636719 121.398438 223.523438 121.035156 223.449219 120.660156 C 223.375 120.285156 223.339844 119.910156 223.339844 119.527344 C 223.339844 119.144531 223.375 118.765625 223.449219 118.394531 C 223.523438 118.019531 223.636719 117.65625 223.78125 117.300781 C 223.925781 116.949219 224.105469 116.613281 224.320312 116.296875 C 224.53125 115.980469 224.773438 115.6875 225.042969 115.417969 C 225.3125 115.148438 225.605469 114.90625 225.921875 114.695312 C 226.238281 114.480469 226.574219 114.300781 226.929688 114.15625 C 227.28125 114.011719 227.644531 113.898438 228.019531 113.824219 C 228.394531 113.75 228.769531 113.714844 229.152344 113.714844 Z M 119.398438 258.09375 C 119.019531 258.09375 118.640625 258.054688 118.265625 257.980469 C 117.890625 257.90625 117.527344 257.796875 117.175781 257.648438 C 116.820312 257.503906 116.488281 257.324219 116.167969 257.113281 C 115.851562 256.898438 115.558594 256.660156 115.289062 256.390625 C 115.019531 256.121094 114.777344 255.824219 114.566406 255.507812 C 114.355469 255.191406 114.175781 254.855469 114.027344 254.503906 C 113.882812 254.152344 113.773438 253.785156 113.699219 253.414062 C 113.625 253.039062 113.585938 252.660156 113.585938 252.277344 C 113.585938 251.898438 113.625 251.519531 113.699219 251.144531 C 113.773438 250.769531 113.882812 250.40625 114.027344 250.054688 C 114.175781 249.699219 114.355469 249.367188 114.566406 249.046875 C 114.777344 248.730469 115.019531 248.4375 115.289062 248.167969 C 115.558594 247.898438 115.851562 247.65625 116.167969 247.445312 C 116.488281 247.234375 116.820312 247.054688 117.175781 246.90625 C 117.527344 246.761719 117.890625 246.652344 118.265625 246.578125 C 118.640625 246.503906 119.019531 246.464844 119.398438 246.464844 C 119.78125 246.464844 120.160156 246.503906 120.535156 246.578125 C 120.90625 246.652344 121.273438 246.761719 121.625 246.90625 C 121.976562 247.054688 122.3125 247.234375 122.628906 247.445312 C 122.945312 247.65625 123.242188 247.898438 123.511719 248.167969 C 123.78125 248.4375 124.019531 248.730469 124.234375 249.046875 C 124.445312 249.367188 124.625 249.699219 124.769531 250.054688 C 124.917969 250.40625 125.027344 250.769531 125.101562 251.144531 C 125.175781 251.519531 125.214844 251.898438 125.214844 252.277344 C 125.214844 252.660156 125.175781 253.039062 125.101562 253.414062 C 125.027344 253.785156 124.917969 254.152344 124.769531 254.503906 C 124.625 254.855469 124.445312 255.191406 124.234375 255.507812 C 124.019531 255.824219 123.78125 256.121094 123.511719 256.390625 C 123.242188 256.660156 122.945312 256.898438 122.628906 257.113281 C 122.3125 257.324219 121.976562 257.503906 121.625 257.648438 C 121.273438 257.796875 120.90625 257.90625 120.535156 257.980469 C 120.160156 258.054688 119.78125 258.09375 119.398438 258.09375 Z M 317.441406 141.054688 L 282.558594 141.054688 C 282.320312 140.390625 282.042969 139.742188 281.726562 139.105469 C 281.410156 138.472656 281.058594 137.859375 280.671875 137.265625 C 280.285156 136.675781 279.867188 136.105469 279.414062 135.5625 C 278.960938 135.019531 278.476562 134.503906 277.960938 134.015625 C 277.449219 133.527344 276.910156 133.074219 276.34375 132.648438 C 275.777344 132.222656 275.1875 131.832031 274.574219 131.476562 C 273.960938 131.121094 273.332031 130.804688 272.683594 130.523438 C 272.035156 130.238281 271.371094 129.996094 270.691406 129.792969 C 270.015625 129.585938 269.328125 129.421875 268.628906 129.296875 C 267.933594 129.171875 267.230469 129.089844 266.523438 129.046875 C 265.820312 129.003906 265.113281 129.003906 264.40625 129.042969 C 263.699219 129.082031 262.996094 129.164062 262.300781 129.285156 C 261.601562 129.40625 260.914062 129.566406 260.234375 129.769531 C 259.558594 129.972656 258.890625 130.210938 258.242188 130.492188 C 257.589844 130.773438 256.960938 131.085938 256.347656 131.441406 C 255.734375 131.792969 255.140625 132.179688 254.574219 132.605469 C 254.003906 133.027344 253.464844 133.480469 252.949219 133.964844 C 252.433594 134.449219 251.945312 134.964844 251.492188 135.503906 C 251.035156 136.046875 250.613281 136.613281 250.222656 137.203125 C 249.835938 137.796875 249.480469 138.40625 249.164062 139.039062 C 248.84375 139.671875 248.5625 140.320312 248.320312 140.984375 C 248.078125 141.652344 247.875 142.328125 247.714844 143.015625 C 247.550781 143.707031 247.425781 144.402344 247.34375 145.105469 C 247.261719 145.808594 247.222656 146.511719 247.222656 147.222656 C 247.222656 147.929688 247.261719 148.632812 247.34375 149.335938 C 247.425781 150.039062 247.550781 150.738281 247.714844 151.425781 C 247.875 152.113281 248.078125 152.789062 248.320312 153.457031 C 248.5625 154.121094 248.84375 154.769531 249.164062 155.402344 C 249.480469 156.035156 249.835938 156.644531 250.222656 157.238281 C 250.613281 157.828125 251.035156 158.394531 251.492188 158.9375 C 251.945312 159.480469 252.433594 159.992188 252.949219 160.476562 C 253.464844 160.960938 254.003906 161.417969 254.574219 161.839844 C 255.140625 162.261719 255.734375 162.648438 256.347656 163 C 256.960938 163.355469 257.589844 163.671875 258.242188 163.949219 C 258.890625 164.230469 259.558594 164.46875 260.234375 164.671875 C 260.914062 164.875 261.601562 165.035156 262.300781 165.15625 C 262.996094 165.277344 263.699219 165.359375 264.40625 165.398438 C 265.113281 165.4375 265.820312 165.4375 266.523438 165.394531 C 267.230469 165.351562 267.933594 165.269531 268.628906 165.144531 C 269.328125 165.019531 270.015625 164.855469 270.691406 164.652344 C 271.371094 164.445312 272.035156 164.203125 272.683594 163.921875 C 273.332031 163.636719 273.960938 163.320312 274.574219 162.964844 C 275.1875 162.609375 275.777344 162.21875 276.34375 161.792969 C 276.910156 161.371094 277.449219 160.914062 277.960938 160.425781 C 278.476562 159.9375 278.960938 159.421875 279.414062 158.878906 C 279.867188 158.335938 280.285156 157.769531 280.671875 157.175781 C 281.058594 156.582031 281.410156 155.96875 281.726562 155.335938 C 282.042969 154.703125 282.320312 154.050781 282.558594 153.386719 L 317.632812 153.386719 L 317.632812 202 L 294.824219 202 L 270.230469 185.074219 L 269.65625 185.074219 C 269.449219 184.40625 269.207031 183.757812 268.929688 183.121094 C 268.652344 182.484375 268.335938 181.863281 267.988281 181.261719 C 267.636719 180.660156 267.253906 180.082031 266.835938 179.527344 C 266.421875 178.96875 265.972656 178.4375 265.496094 177.929688 C 265.019531 177.425781 264.515625 176.949219 263.984375 176.5 C 263.453125 176.050781 262.894531 175.636719 262.316406 175.25 C 261.738281 174.867188 261.136719 174.515625 260.515625 174.199219 C 259.898438 173.886719 259.261719 173.605469 258.609375 173.363281 C 257.957031 173.121094 257.296875 172.914062 256.621094 172.75 C 255.945312 172.582031 255.261719 172.453125 254.574219 172.367188 C 253.882812 172.277344 253.191406 172.226562 252.496094 172.21875 C 251.800781 172.210938 251.105469 172.238281 250.414062 172.308594 C 249.722656 172.378906 249.035156 172.488281 248.355469 172.636719 C 247.675781 172.789062 247.007812 172.972656 246.351562 173.199219 C 245.691406 173.425781 245.050781 173.6875 244.421875 173.988281 C 243.792969 174.285156 243.1875 174.621094 242.597656 174.988281 C 242.007812 175.355469 241.441406 175.757812 240.894531 176.191406 C 240.351562 176.625 239.835938 177.089844 239.34375 177.582031 C 238.855469 178.074219 238.394531 178.59375 237.960938 179.140625 C 237.53125 179.6875 237.132812 180.253906 236.769531 180.847656 C 236.402344 181.4375 236.070312 182.046875 235.773438 182.679688 C 235.480469 183.308594 235.21875 183.953125 235 184.609375 C 234.777344 185.269531 234.59375 185.941406 234.445312 186.621094 C 234.300781 187.300781 234.195312 187.984375 234.128906 188.679688 C 234.0625 189.371094 234.035156 190.0625 234.046875 190.757812 C 234.0625 191.453125 234.113281 192.148438 234.207031 192.835938 C 234.296875 193.527344 234.429688 194.207031 234.597656 194.882812 C 234.769531 195.554688 234.976562 196.21875 235.222656 196.867188 C 235.46875 197.519531 235.753906 198.152344 236.070312 198.773438 C 236.390625 199.390625 236.742188 199.988281 237.132812 200.566406 C 237.519531 201.144531 237.9375 201.695312 238.386719 202.226562 C 238.839844 202.753906 239.320312 203.257812 239.828125 203.730469 C 240.335938 204.207031 240.871094 204.652344 241.429688 205.0625 C 241.988281 205.476562 242.570312 205.859375 243.171875 206.203125 C 243.773438 206.550781 244.394531 206.863281 245.035156 207.140625 C 245.671875 207.414062 246.324219 207.652344 246.988281 207.855469 C 247.65625 208.054688 248.332031 208.21875 249.015625 208.339844 C 249.699219 208.464844 250.386719 208.546875 251.082031 208.59375 C 251.777344 208.636719 252.472656 208.644531 253.164062 208.609375 C 253.859375 208.574219 254.550781 208.5 255.238281 208.382812 C 255.921875 208.269531 256.601562 208.117188 257.269531 207.925781 C 257.9375 207.734375 258.59375 207.503906 259.234375 207.238281 C 259.878906 206.972656 260.503906 206.667969 261.109375 206.332031 C 261.71875 205.992188 262.304688 205.621094 262.867188 205.214844 C 263.433594 204.808594 263.972656 204.375 264.488281 203.90625 C 265.003906 203.4375 265.488281 202.945312 265.949219 202.421875 C 266.40625 201.898438 266.832031 201.347656 267.230469 200.777344 C 267.625 200.207031 267.984375 199.613281 268.3125 199 L 289.394531 213.375 C 290.457031 214.085938 291.628906 214.449219 292.910156 214.460938 L 317.632812 214.460938 L 317.632812 318.269531 L 251.382812 318.269531 L 251.382812 294.632812 L 268.1875 270.101562 C 268.941406 269.054688 269.304688 267.882812 269.273438 266.589844 L 269.273438 251.703125 C 269.9375 251.464844 270.585938 251.1875 271.222656 250.871094 C 271.855469 250.554688 272.46875 250.203125 273.0625 249.816406 C 273.652344 249.429688 274.222656 249.011719 274.765625 248.554688 C 275.308594 248.101562 275.824219 247.621094 276.3125 247.105469 C 276.800781 246.59375 277.253906 246.054688 277.679688 245.488281 C 278.105469 244.921875 278.492188 244.332031 278.851562 243.71875 C 279.207031 243.105469 279.523438 242.476562 279.804688 241.828125 C 280.089844 241.175781 280.332031 240.515625 280.535156 239.835938 C 280.742188 239.160156 280.90625 238.472656 281.03125 237.773438 C 281.15625 237.078125 281.238281 236.375 281.28125 235.667969 C 281.324219 234.960938 281.324219 234.257812 281.285156 233.550781 C 281.246094 232.84375 281.164062 232.140625 281.042969 231.441406 C 280.921875 230.746094 280.757812 230.058594 280.558594 229.378906 C 280.355469 228.699219 280.113281 228.035156 279.835938 227.386719 C 279.554688 226.734375 279.238281 226.105469 278.886719 225.488281 C 278.535156 224.875 278.144531 224.285156 277.722656 223.71875 C 277.300781 223.148438 276.847656 222.605469 276.363281 222.089844 C 275.878906 221.578125 275.363281 221.089844 274.824219 220.636719 C 274.28125 220.179688 273.714844 219.757812 273.125 219.367188 C 272.53125 218.976562 271.921875 218.625 271.289062 218.304688 C 270.65625 217.988281 270.007812 217.707031 269.339844 217.464844 C 268.675781 217.222656 268 217.019531 267.3125 216.855469 C 266.621094 216.695312 265.925781 216.570312 265.222656 216.488281 C 264.519531 216.40625 263.816406 216.363281 263.105469 216.363281 C 262.398438 216.363281 261.695312 216.40625 260.992188 216.488281 C 260.289062 216.570312 259.589844 216.695312 258.902344 216.855469 C 258.214844 217.019531 257.535156 217.222656 256.871094 217.464844 C 256.207031 217.707031 255.558594 217.988281 254.925781 218.304688 C 254.292969 218.625 253.679688 218.976562 253.089844 219.367188 C 252.5 219.757812 251.933594 220.179688 251.390625 220.636719 C 250.847656 221.089844 250.335938 221.578125 249.851562 222.089844 C 249.363281 222.605469 248.910156 223.148438 248.488281 223.71875 C 248.066406 224.285156 247.679688 224.875 247.328125 225.488281 C 246.972656 226.105469 246.65625 226.734375 246.378906 227.386719 C 246.097656 228.035156 245.859375 228.699219 245.65625 229.378906 C 245.453125 230.058594 245.292969 230.746094 245.171875 231.441406 C 245.050781 232.140625 244.96875 232.84375 244.929688 233.550781 C 244.890625 234.257812 244.890625 234.960938 244.933594 235.667969 C 244.976562 236.375 245.058594 237.078125 245.183594 237.773438 C 245.308594 238.472656 245.472656 239.160156 245.675781 239.835938 C 245.882812 240.515625 246.125 241.175781 246.40625 241.828125 C 246.691406 242.476562 247.007812 243.105469 247.363281 243.71875 C 247.71875 244.332031 248.109375 244.921875 248.535156 245.488281 C 248.957031 246.054688 249.414062 246.59375 249.902344 247.105469 C 250.390625 247.621094 250.90625 248.101562 251.449219 248.554688 C 251.992188 249.011719 252.558594 249.429688 253.152344 249.816406 C 253.746094 250.203125 254.359375 250.554688 254.992188 250.871094 C 255.625 251.1875 256.277344 251.464844 256.941406 251.703125 L 256.941406 264.480469 L 240.140625 289.074219 C 239.4375 290.117188 239.078125 291.269531 239.054688 292.527344 L 239.054688 318.078125 L 205.453125 318.078125 L 205.453125 294.441406 L 222.253906 269.910156 C 222.96875 268.847656 223.328125 267.675781 223.339844 266.398438 L 223.339844 251.703125 C 224.003906 251.464844 224.65625 251.1875 225.289062 250.871094 C 225.921875 250.554688 226.535156 250.203125 227.128906 249.816406 C 227.722656 249.429688 228.289062 249.011719 228.832031 248.554688 C 229.375 248.101562 229.890625 247.621094 230.378906 247.105469 C 230.867188 246.59375 231.324219 246.054688 231.746094 245.488281 C 232.171875 244.921875 232.5625 244.332031 232.917969 243.71875 C 233.273438 243.105469 233.589844 242.476562 233.875 241.828125 C 234.15625 241.175781 234.398438 240.515625 234.605469 239.835938 C 234.808594 239.160156 234.972656 238.472656 235.097656 237.773438 C 235.222656 237.078125 235.304688 236.375 235.347656 235.667969 C 235.390625 234.960938 235.390625 234.257812 235.351562 233.550781 C 235.3125 232.84375 235.230469 232.140625 235.109375 231.441406 C 234.988281 230.746094 234.828125 230.058594 234.625 229.378906 C 234.421875 228.699219 234.183594 228.035156 233.902344 227.386719 C 233.625 226.734375 233.308594 226.105469 232.953125 225.488281 C 232.601562 224.875 232.214844 224.285156 231.792969 223.71875 C 231.371094 223.148438 230.914062 222.605469 230.429688 222.089844 C 229.945312 221.578125 229.433594 221.089844 228.890625 220.636719 C 228.347656 220.179688 227.78125 219.757812 227.191406 219.367188 C 226.597656 218.976562 225.988281 218.625 225.355469 218.304688 C 224.722656 217.988281 224.074219 217.707031 223.410156 217.464844 C 222.742188 217.222656 222.066406 217.019531 221.378906 216.855469 C 220.691406 216.695312 219.992188 216.570312 219.289062 216.488281 C 218.585938 216.40625 217.882812 216.363281 217.175781 216.363281 C 216.464844 216.363281 215.761719 216.40625 215.058594 216.488281 C 214.355469 216.570312 213.660156 216.695312 212.96875 216.855469 C 212.28125 217.019531 211.605469 217.222656 210.9375 217.464844 C 210.273438 217.707031 209.625 217.988281 208.992188 218.304688 C 208.359375 218.625 207.75 218.976562 207.15625 219.367188 C 206.566406 219.757812 206 220.179688 205.457031 220.636719 C 204.917969 221.089844 204.402344 221.578125 203.917969 222.089844 C 203.433594 222.605469 202.980469 223.148438 202.558594 223.71875 C 202.132812 224.285156 201.746094 224.875 201.394531 225.488281 C 201.039062 226.105469 200.726562 226.734375 200.445312 227.386719 C 200.164062 228.035156 199.925781 228.699219 199.722656 229.378906 C 199.523438 230.058594 199.359375 230.746094 199.238281 231.441406 C 199.117188 232.140625 199.035156 232.84375 198.996094 233.550781 C 198.957031 234.257812 198.957031 234.960938 199 235.667969 C 199.042969 236.375 199.125 237.078125 199.25 237.773438 C 199.375 238.472656 199.539062 239.160156 199.746094 239.835938 C 199.949219 240.515625 200.191406 241.175781 200.476562 241.828125 C 200.757812 242.476562 201.074219 243.105469 201.429688 243.71875 C 201.785156 244.332031 202.175781 244.921875 202.601562 245.488281 C 203.027344 246.054688 203.480469 246.59375 203.96875 247.105469 C 204.457031 247.621094 204.972656 248.101562 205.515625 248.554688 C 206.058594 249.011719 206.628906 249.429688 207.21875 249.816406 C 207.8125 250.203125 208.425781 250.554688 209.058594 250.871094 C 209.695312 251.1875 210.34375 251.464844 211.007812 251.703125 L 211.007812 264.480469 L 194.144531 289.074219 C 193.441406 290.117188 193.082031 291.269531 193.058594 292.527344 L 193.058594 318.078125 L 160.667969 318.078125 L 160.667969 294.441406 L 177.46875 269.910156 C 177.496094 269.699219 177.496094 269.484375 177.46875 269.273438 C 178.136719 269.070312 178.789062 268.828125 179.425781 268.550781 C 180.0625 268.273438 180.683594 267.960938 181.285156 267.609375 C 181.886719 267.261719 182.46875 266.878906 183.027344 266.464844 C 183.585938 266.046875 184.117188 265.601562 184.625 265.125 C 185.132812 264.648438 185.609375 264.144531 186.058594 263.613281 C 186.511719 263.082031 186.925781 262.527344 187.3125 261.949219 C 187.699219 261.371094 188.050781 260.769531 188.367188 260.148438 C 188.683594 259.53125 188.964844 258.894531 189.210938 258.242188 C 189.453125 257.589844 189.660156 256.929688 189.828125 256.253906 C 189.996094 255.578125 190.125 254.894531 190.214844 254.203125 C 190.304688 253.515625 190.355469 252.820312 190.363281 252.125 C 190.375 251.429688 190.34375 250.734375 190.277344 250.042969 C 190.207031 249.351562 190.097656 248.664062 189.949219 247.984375 C 189.800781 247.304688 189.613281 246.636719 189.390625 245.976562 C 189.164062 245.316406 188.902344 244.675781 188.605469 244.046875 C 188.308594 243.417969 187.972656 242.808594 187.605469 242.21875 C 187.238281 241.625 186.835938 241.058594 186.402344 240.515625 C 185.96875 239.96875 185.503906 239.453125 185.011719 238.960938 C 184.519531 238.46875 184 238.007812 183.453125 237.578125 C 182.910156 237.144531 182.339844 236.746094 181.746094 236.378906 C 181.15625 236.011719 180.546875 235.679688 179.917969 235.382812 C 179.285156 235.089844 178.640625 234.828125 177.984375 234.605469 C 177.324219 234.382812 176.652344 234.199219 175.972656 234.054688 C 175.292969 233.90625 174.605469 233.800781 173.914062 233.734375 C 173.21875 233.667969 172.527344 233.640625 171.832031 233.652344 C 171.132812 233.664062 170.441406 233.71875 169.75 233.808594 C 169.0625 233.902344 168.378906 234.03125 167.703125 234.203125 C 167.03125 234.375 166.367188 234.582031 165.714844 234.828125 C 165.066406 235.074219 164.429688 235.355469 163.8125 235.675781 C 163.195312 235.996094 162.59375 236.347656 162.015625 236.734375 C 161.4375 237.125 160.886719 237.542969 160.355469 237.992188 C 159.824219 238.445312 159.324219 238.925781 158.847656 239.433594 C 158.375 239.941406 157.929688 240.476562 157.515625 241.035156 C 157.101562 241.597656 156.722656 242.179688 156.375 242.78125 C 156.027344 243.382812 155.71875 244.003906 155.441406 244.644531 C 155.164062 245.285156 154.925781 245.9375 154.726562 246.601562 C 154.527344 247.269531 154.363281 247.945312 154.242188 248.628906 C 154.117188 249.316406 154.035156 250.003906 153.988281 250.699219 C 153.945312 251.394531 153.941406 252.089844 153.976562 252.785156 C 154.011719 253.476562 154.085938 254.167969 154.199219 254.855469 C 154.316406 255.542969 154.46875 256.21875 154.660156 256.886719 C 154.855469 257.558594 155.082031 258.214844 155.351562 258.855469 C 155.617188 259.496094 155.921875 260.121094 156.261719 260.730469 C 156.601562 261.339844 156.972656 261.925781 157.378906 262.488281 C 157.785156 263.054688 158.222656 263.59375 158.691406 264.109375 C 159.160156 264.625 159.65625 265.109375 160.179688 265.566406 C 160.703125 266.027344 161.253906 266.453125 161.828125 266.847656 C 162.398438 267.242188 162.992188 267.601562 163.605469 267.929688 L 149.105469 289.074219 C 148.425781 290.125 148.085938 291.277344 148.082031 292.527344 L 148.082031 318.078125 L 125.597656 318.078125 L 125.597656 269.207031 C 126.257812 268.96875 126.90625 268.6875 127.535156 268.371094 C 128.164062 268.058594 128.773438 267.707031 129.363281 267.320312 C 129.949219 266.933594 130.515625 266.511719 131.054688 266.058594 C 131.59375 265.605469 132.105469 265.125 132.589844 264.613281 C 133.074219 264.097656 133.527344 263.5625 133.949219 262.996094 C 134.371094 262.429688 134.757812 261.84375 135.109375 261.234375 C 135.460938 260.625 135.777344 259.996094 136.054688 259.347656 C 136.335938 258.699219 136.578125 258.039062 136.777344 257.363281 C 136.980469 256.691406 137.144531 256.003906 137.265625 255.3125 C 137.386719 254.617188 137.46875 253.917969 137.511719 253.214844 C 137.550781 252.511719 137.554688 251.808594 137.511719 251.105469 C 137.472656 250.402344 137.390625 249.703125 137.269531 249.007812 C 137.144531 248.316406 136.984375 247.632812 136.78125 246.957031 C 136.578125 246.28125 136.339844 245.621094 136.058594 244.972656 C 135.78125 244.324219 135.464844 243.699219 135.113281 243.085938 C 134.761719 242.476562 134.375 241.890625 133.953125 241.324219 C 133.535156 240.757812 133.082031 240.21875 132.597656 239.707031 C 132.113281 239.195312 131.601562 238.710938 131.0625 238.257812 C 130.523438 237.804688 129.960938 237.386719 129.371094 237 C 128.78125 236.609375 128.171875 236.257812 127.542969 235.941406 C 126.914062 235.625 126.269531 235.347656 125.605469 235.105469 C 124.945312 234.867188 124.269531 234.664062 123.585938 234.5 C 122.898438 234.339844 122.207031 234.21875 121.507812 234.136719 C 120.804688 234.054688 120.105469 234.011719 119.398438 234.011719 C 118.695312 234.011719 117.992188 234.054688 117.292969 234.136719 C 116.59375 234.21875 115.898438 234.339844 115.214844 234.5 C 114.527344 234.664062 113.855469 234.867188 113.191406 235.105469 C 112.53125 235.347656 111.886719 235.625 111.253906 235.941406 C 110.625 236.257812 110.015625 236.609375 109.429688 237 C 108.839844 237.386719 108.273438 237.804688 107.734375 238.257812 C 107.195312 238.710938 106.683594 239.195312 106.199219 239.707031 C 105.71875 240.21875 105.265625 240.757812 104.84375 241.324219 C 104.425781 241.890625 104.039062 242.476562 103.683594 243.085938 C 103.332031 243.699219 103.019531 244.324219 102.738281 244.972656 C 102.460938 245.621094 102.21875 246.28125 102.015625 246.957031 C 101.816406 247.632812 101.652344 248.316406 101.53125 249.007812 C 101.410156 249.703125 101.328125 250.402344 101.285156 251.105469 C 101.246094 251.808594 101.246094 252.511719 101.289062 253.214844 C 101.328125 253.917969 101.410156 254.617188 101.53125 255.3125 C 101.65625 256.003906 101.816406 256.691406 102.019531 257.363281 C 102.222656 258.039062 102.464844 258.699219 102.742188 259.347656 C 103.023438 259.996094 103.339844 260.625 103.691406 261.234375 C 104.042969 261.84375 104.429688 262.429688 104.851562 262.996094 C 105.273438 263.5625 105.722656 264.097656 106.207031 264.613281 C 106.691406 265.125 107.203125 265.605469 107.742188 266.058594 C 108.285156 266.511719 108.847656 266.933594 109.4375 267.320312 C 110.027344 267.707031 110.636719 268.058594 111.265625 268.371094 C 111.894531 268.6875 112.539062 268.96875 113.203125 269.207031 L 113.203125 318.269531 L 56.730469 318.269531 L 56.730469 187.820312 L 64.585938 187.820312 L 89.117188 204.621094 C 90.179688 205.335938 91.351562 205.695312 92.632812 205.707031 L 107.898438 205.707031 C 108.140625 206.371094 108.417969 207.023438 108.734375 207.65625 C 109.046875 208.289062 109.398438 208.902344 109.785156 209.496094 C 110.175781 210.089844 110.59375 210.65625 111.046875 211.199219 C 111.5 211.746094 111.984375 212.261719 112.496094 212.746094 C 113.011719 213.234375 113.550781 213.691406 114.117188 214.113281 C 114.683594 214.539062 115.273438 214.929688 115.886719 215.285156 C 116.496094 215.640625 117.128906 215.960938 117.777344 216.242188 C 118.425781 216.523438 119.089844 216.765625 119.769531 216.972656 C 120.445312 217.175781 121.132812 217.339844 121.828125 217.464844 C 122.527344 217.589844 123.226562 217.671875 123.933594 217.714844 C 124.640625 217.757812 125.347656 217.761719 126.054688 217.71875 C 126.761719 217.679688 127.464844 217.601562 128.160156 217.476562 C 128.859375 217.355469 129.546875 217.195312 130.222656 216.992188 C 130.902344 216.792969 131.566406 216.550781 132.21875 216.269531 C 132.867188 215.992188 133.5 215.675781 134.113281 215.320312 C 134.726562 214.96875 135.316406 214.582031 135.886719 214.160156 C 136.453125 213.738281 136.996094 213.285156 137.511719 212.796875 C 138.027344 212.3125 138.511719 211.800781 138.96875 211.257812 C 139.425781 210.714844 139.847656 210.148438 140.234375 209.558594 C 140.625 208.96875 140.980469 208.355469 141.296875 207.722656 C 141.617188 207.089844 141.894531 206.441406 142.136719 205.777344 C 142.378906 205.113281 142.582031 204.433594 142.746094 203.746094 C 142.910156 203.058594 143.03125 202.363281 143.117188 201.660156 C 143.199219 200.957031 143.238281 200.25 143.238281 199.542969 C 143.238281 198.835938 143.199219 198.128906 143.117188 197.425781 C 143.03125 196.722656 142.910156 196.027344 142.746094 195.339844 C 142.582031 194.648438 142.378906 193.972656 142.136719 193.308594 C 141.894531 192.640625 141.617188 191.992188 141.296875 191.359375 C 140.980469 190.730469 140.625 190.117188 140.234375 189.527344 C 139.847656 188.933594 139.425781 188.367188 138.96875 187.828125 C 138.511719 187.285156 138.027344 186.769531 137.511719 186.285156 C 136.996094 185.800781 136.453125 185.347656 135.886719 184.925781 C 135.316406 184.503906 134.726562 184.113281 134.113281 183.761719 C 133.5 183.410156 132.867188 183.09375 132.21875 182.8125 C 131.566406 182.535156 130.902344 182.292969 130.222656 182.089844 C 129.546875 181.890625 128.859375 181.726562 128.160156 181.605469 C 127.464844 181.484375 126.761719 181.402344 126.054688 181.363281 C 125.347656 181.324219 124.640625 181.324219 123.933594 181.367188 C 123.226562 181.410156 122.527344 181.496094 121.828125 181.617188 C 121.132812 181.742188 120.445312 181.90625 119.769531 182.113281 C 119.089844 182.316406 118.425781 182.5625 117.777344 182.84375 C 117.128906 183.125 116.496094 183.445312 115.886719 183.800781 C 115.273438 184.15625 114.683594 184.546875 114.117188 184.96875 C 113.550781 185.394531 113.011719 185.847656 112.496094 186.335938 C 111.984375 186.824219 111.5 187.339844 111.046875 187.882812 C 110.59375 188.425781 110.175781 188.996094 109.785156 189.589844 C 109.398438 190.179688 109.046875 190.792969 108.734375 191.425781 C 108.417969 192.0625 108.140625 192.710938 107.898438 193.378906 L 94.546875 193.378906 L 69.953125 176.511719 C 68.902344 175.832031 67.753906 175.492188 66.503906 175.488281 L 56.730469 175.488281 L 56.730469 159.648438 L 71.679688 159.648438 C 71.917969 160.3125 72.195312 160.960938 72.511719 161.597656 C 72.828125 162.230469 73.175781 162.84375 73.566406 163.4375 C 73.953125 164.027344 74.371094 164.597656 74.824219 165.140625 C 75.277344 165.683594 75.761719 166.199219 76.273438 166.6875 C 76.789062 167.175781 77.328125 167.628906 77.894531 168.054688 C 78.460938 168.480469 79.050781 168.867188 79.664062 169.222656 C 80.273438 169.582031 80.90625 169.898438 81.554688 170.179688 C 82.203125 170.464844 82.867188 170.707031 83.546875 170.910156 C 84.222656 171.117188 84.910156 171.28125 85.605469 171.40625 C 86.304688 171.53125 87.003906 171.613281 87.710938 171.65625 C 88.417969 171.699219 89.125 171.699219 89.832031 171.660156 C 90.539062 171.621094 91.242188 171.539062 91.9375 171.417969 C 92.636719 171.296875 93.324219 171.132812 94.003906 170.933594 C 94.679688 170.730469 95.34375 170.488281 95.996094 170.210938 C 96.644531 169.929688 97.277344 169.613281 97.890625 169.261719 C 98.503906 168.910156 99.097656 168.519531 99.664062 168.097656 C 100.234375 167.675781 100.773438 167.222656 101.289062 166.738281 C 101.804688 166.253906 102.289062 165.738281 102.746094 165.199219 C 103.203125 164.65625 103.625 164.089844 104.015625 163.5 C 104.402344 162.90625 104.757812 162.296875 105.074219 161.664062 C 105.394531 161.03125 105.671875 160.382812 105.914062 159.714844 C 106.15625 159.050781 106.359375 158.375 106.523438 157.6875 C 106.6875 156.996094 106.8125 156.300781 106.894531 155.597656 C 106.976562 154.894531 107.015625 154.191406 107.015625 153.480469 C 107.015625 152.773438 106.976562 152.066406 106.894531 151.367188 C 106.8125 150.664062 106.6875 149.964844 106.523438 149.277344 C 106.359375 148.589844 106.15625 147.910156 105.914062 147.246094 C 105.671875 146.582031 105.394531 145.933594 105.074219 145.300781 C 104.757812 144.667969 104.402344 144.054688 104.011719 143.464844 C 103.625 142.875 103.203125 142.308594 102.746094 141.765625 C 102.289062 141.222656 101.804688 140.710938 101.289062 140.226562 C 100.773438 139.738281 100.234375 139.285156 99.664062 138.863281 C 99.097656 138.441406 98.503906 138.054688 97.890625 137.703125 C 97.277344 137.347656 96.644531 137.03125 95.996094 136.753906 C 95.34375 136.472656 94.679688 136.234375 94.003906 136.03125 C 93.324219 135.828125 92.636719 135.667969 91.9375 135.546875 C 91.242188 135.425781 90.539062 135.34375 89.832031 135.304688 C 89.125 135.265625 88.417969 135.265625 87.710938 135.308594 C 87.003906 135.351562 86.304688 135.433594 85.605469 135.558594 C 84.910156 135.683594 84.222656 135.847656 83.546875 136.050781 C 82.867188 136.257812 82.203125 136.5 81.554688 136.78125 C 80.90625 137.066406 80.273438 137.382812 79.664062 137.738281 C 79.050781 138.09375 78.460938 138.484375 77.894531 138.910156 C 77.328125 139.332031 76.789062 139.789062 76.273438 140.277344 C 75.761719 140.765625 75.277344 141.277344 74.824219 141.824219 C 74.371094 142.367188 73.953125 142.933594 73.566406 143.527344 C 73.175781 144.121094 72.828125 144.734375 72.511719 145.367188 C 72.195312 146 71.917969 146.652344 71.679688 147.316406 L 58.328125 147.316406 L 56.730469 146.230469 L 56.730469 57.367188 L 143.101562 57.367188 L 143.101562 77.042969 L 126.300781 101.640625 C 125.585938 102.703125 125.222656 103.875 125.214844 105.152344 L 125.214844 120.359375 C 124.546875 120.597656 123.898438 120.875 123.261719 121.191406 C 122.628906 121.507812 122.015625 121.855469 121.421875 122.246094 C 120.832031 122.632812 120.261719 123.050781 119.71875 123.503906 C 119.175781 123.957031 118.660156 124.441406 118.171875 124.953125 C 117.683594 125.46875 117.230469 126.007812 116.804688 126.574219 C 116.378906 127.140625 115.992188 127.730469 115.636719 128.34375 C 115.28125 128.953125 114.960938 129.585938 114.679688 130.234375 C 114.394531 130.882812 114.152344 131.546875 113.949219 132.226562 C 113.742188 132.902344 113.578125 133.589844 113.453125 134.285156 C 113.332031 134.984375 113.246094 135.683594 113.203125 136.390625 C 113.160156 137.097656 113.160156 137.804688 113.199219 138.511719 C 113.238281 139.21875 113.320312 139.921875 113.441406 140.617188 C 113.5625 141.316406 113.726562 142.003906 113.925781 142.683594 C 114.128906 143.359375 114.371094 144.023438 114.648438 144.675781 C 114.929688 145.324219 115.246094 145.957031 115.597656 146.570312 C 115.949219 147.183594 116.339844 147.777344 116.761719 148.34375 C 117.183594 148.914062 117.636719 149.453125 118.121094 149.96875 C 118.605469 150.484375 119.121094 150.96875 119.660156 151.425781 C 120.203125 151.882812 120.769531 152.304688 121.359375 152.695312 C 121.953125 153.082031 122.5625 153.4375 123.195312 153.753906 C 123.828125 154.074219 124.476562 154.351562 125.144531 154.59375 C 125.808594 154.835938 126.484375 155.039062 127.171875 155.203125 C 127.863281 155.367188 128.558594 155.492188 129.261719 155.574219 C 129.964844 155.65625 130.667969 155.695312 131.378906 155.695312 C 132.085938 155.695312 132.792969 155.65625 133.496094 155.574219 C 134.199219 155.492188 134.894531 155.367188 135.582031 155.203125 C 136.269531 155.039062 136.949219 154.835938 137.613281 154.59375 C 138.277344 154.351562 138.925781 154.074219 139.558594 153.753906 C 140.191406 153.4375 140.804688 153.082031 141.394531 152.695312 C 141.984375 152.304688 142.550781 151.882812 143.09375 151.425781 C 143.636719 150.96875 144.148438 150.484375 144.632812 149.96875 C 145.121094 149.453125 145.574219 148.914062 145.996094 148.34375 C 146.417969 147.777344 146.804688 147.183594 147.15625 146.570312 C 147.511719 145.957031 147.828125 145.324219 148.105469 144.675781 C 148.386719 144.023438 148.625 143.359375 148.828125 142.683594 C 149.03125 142.003906 149.191406 141.316406 149.3125 140.617188 C 149.433594 139.921875 149.515625 139.21875 149.554688 138.511719 C 149.597656 137.804688 149.59375 137.097656 149.550781 136.390625 C 149.507812 135.683594 149.425781 134.984375 149.300781 134.285156 C 149.175781 133.589844 149.011719 132.902344 148.808594 132.226562 C 148.601562 131.546875 148.359375 130.882812 148.078125 130.234375 C 147.796875 129.585938 147.476562 128.953125 147.121094 128.34375 C 146.765625 127.730469 146.375 127.140625 145.949219 126.574219 C 145.527344 126.007812 145.070312 125.46875 144.582031 124.953125 C 144.097656 124.441406 143.582031 123.957031 143.035156 123.503906 C 142.492188 123.050781 141.925781 122.632812 141.332031 122.246094 C 140.738281 121.855469 140.125 121.507812 139.492188 121.191406 C 138.859375 120.875 138.207031 120.597656 137.542969 120.359375 L 137.542969 107.007812 L 154.40625 82.472656 C 154.980469 81.464844 155.257812 80.378906 155.238281 79.214844 L 155.238281 57.367188 L 187.628906 57.367188 L 187.628906 77.042969 L 170.828125 101.640625 C 170.800781 101.832031 170.800781 102.023438 170.828125 102.214844 C 170.160156 102.417969 169.507812 102.65625 168.871094 102.9375 C 168.230469 103.214844 167.613281 103.527344 167.011719 103.875 C 166.40625 104.226562 165.828125 104.605469 165.269531 105.023438 C 164.710938 105.4375 164.179688 105.882812 163.671875 106.359375 C 163.164062 106.835938 162.683594 107.339844 162.234375 107.871094 C 161.785156 108.402344 161.367188 108.957031 160.984375 109.539062 C 160.597656 110.117188 160.246094 110.714844 159.929688 111.335938 C 159.613281 111.957031 159.332031 112.589844 159.085938 113.242188 C 158.84375 113.894531 158.636719 114.558594 158.46875 115.234375 C 158.300781 115.910156 158.171875 116.589844 158.082031 117.28125 C 157.992188 117.972656 157.941406 118.664062 157.933594 119.359375 C 157.921875 120.054688 157.953125 120.75 158.019531 121.441406 C 158.089844 122.136719 158.199219 122.820312 158.347656 123.503906 C 158.496094 124.183594 158.679688 124.851562 158.90625 125.511719 C 159.128906 126.167969 159.390625 126.8125 159.691406 127.441406 C 159.988281 128.070312 160.324219 128.679688 160.691406 129.269531 C 161.058594 129.859375 161.460938 130.425781 161.894531 130.972656 C 162.328125 131.515625 162.792969 132.035156 163.285156 132.523438 C 163.777344 133.015625 164.296875 133.476562 164.84375 133.910156 C 165.386719 134.339844 165.957031 134.742188 166.546875 135.105469 C 167.140625 135.472656 167.75 135.804688 168.378906 136.101562 C 169.011719 136.398438 169.65625 136.65625 170.3125 136.878906 C 170.972656 137.101562 171.644531 137.289062 172.324219 137.433594 C 173.003906 137.578125 173.691406 137.683594 174.382812 137.753906 C 175.074219 137.820312 175.769531 137.847656 176.464844 137.832031 C 177.160156 137.820312 177.855469 137.769531 178.542969 137.675781 C 179.234375 137.585938 179.917969 137.453125 180.589844 137.285156 C 181.265625 137.113281 181.929688 136.90625 182.582031 136.660156 C 183.230469 136.414062 183.867188 136.128906 184.484375 135.8125 C 185.101562 135.492188 185.699219 135.136719 186.277344 134.75 C 186.855469 134.363281 187.410156 133.945312 187.941406 133.492188 C 188.46875 133.042969 188.972656 132.5625 189.449219 132.050781 C 189.921875 131.542969 190.367188 131.007812 190.78125 130.449219 C 191.195312 129.890625 191.574219 129.308594 191.921875 128.703125 C 192.269531 128.101562 192.578125 127.480469 192.855469 126.839844 C 193.128906 126.203125 193.367188 125.550781 193.570312 124.882812 C 193.769531 124.21875 193.933594 123.542969 194.054688 122.855469 C 194.179688 122.171875 194.261719 121.480469 194.308594 120.789062 C 194.351562 120.09375 194.355469 119.398438 194.320312 118.703125 C 194.285156 118.007812 194.210938 117.316406 194.09375 116.628906 C 193.980469 115.945312 193.828125 115.265625 193.636719 114.597656 C 193.441406 113.929688 193.210938 113.273438 192.945312 112.632812 C 192.679688 111.988281 192.375 111.363281 192.035156 110.753906 C 191.695312 110.148438 191.324219 109.5625 190.917969 108.996094 C 190.511719 108.433594 190.074219 107.890625 189.605469 107.378906 C 189.136719 106.863281 188.640625 106.375 188.117188 105.917969 C 187.589844 105.460938 187.042969 105.035156 186.46875 104.640625 C 185.898438 104.242188 185.304688 103.882812 184.6875 103.554688 L 199.125 82.472656 C 199.699219 81.464844 199.976562 80.378906 199.957031 79.214844 L 199.957031 57.367188 L 222.957031 57.367188 L 222.957031 102.46875 C 222.292969 102.710938 221.648438 102.988281 221.019531 103.304688 C 220.386719 103.621094 219.777344 103.972656 219.191406 104.359375 C 218.601562 104.746094 218.035156 105.164062 217.496094 105.617188 C 216.957031 106.070312 216.445312 106.554688 215.960938 107.066406 C 215.476562 107.578125 215.023438 108.117188 214.605469 108.683594 C 214.183594 109.246094 213.796875 109.835938 213.445312 110.445312 C 213.089844 111.054688 212.773438 111.683594 212.496094 112.332031 C 212.214844 112.976562 211.976562 113.636719 211.773438 114.3125 C 211.570312 114.988281 211.410156 115.671875 211.285156 116.367188 C 211.164062 117.058594 211.082031 117.757812 211.039062 118.460938 C 211 119.164062 211 119.867188 211.039062 120.570312 C 211.082031 121.277344 211.160156 121.972656 211.285156 122.667969 C 211.40625 123.363281 211.570312 124.046875 211.769531 124.722656 C 211.972656 125.398438 212.210938 126.058594 212.492188 126.703125 C 212.769531 127.351562 213.085938 127.980469 213.4375 128.589844 C 213.789062 129.199219 214.175781 129.789062 214.597656 130.355469 C 215.019531 130.917969 215.46875 131.457031 215.953125 131.972656 C 216.4375 132.484375 216.949219 132.964844 217.488281 133.417969 C 218.027344 133.871094 218.59375 134.292969 219.179688 134.679688 C 219.769531 135.066406 220.378906 135.417969 221.007812 135.734375 C 221.636719 136.050781 222.285156 136.328125 222.945312 136.570312 C 223.609375 136.8125 224.28125 137.011719 224.96875 137.175781 C 225.652344 137.339844 226.347656 137.460938 227.046875 137.542969 C 227.746094 137.625 228.449219 137.664062 229.152344 137.664062 C 229.855469 137.664062 230.558594 137.625 231.257812 137.542969 C 231.957031 137.460938 232.652344 137.339844 233.335938 137.175781 C 234.023438 137.011719 234.695312 136.8125 235.359375 136.570312 C 236.019531 136.328125 236.667969 136.050781 237.296875 135.734375 C 237.925781 135.417969 238.535156 135.066406 239.125 134.679688 C 239.710938 134.292969 240.277344 133.871094 240.816406 133.417969 C 241.355469 132.964844 241.867188 132.484375 242.351562 131.972656 C 242.835938 131.457031 243.285156 130.917969 243.707031 130.355469 C 244.128906 129.789062 244.515625 129.199219 244.867188 128.589844 C 245.21875 127.980469 245.535156 127.351562 245.8125 126.703125 C 246.09375 126.058594 246.332031 125.398438 246.535156 124.722656 C 246.738281 124.046875 246.898438 123.363281 247.019531 122.667969 C 247.144531 121.972656 247.222656 121.277344 247.265625 120.570312 C 247.304688 119.867188 247.304688 119.164062 247.265625 118.460938 C 247.222656 117.757812 247.140625 117.058594 247.019531 116.367188 C 246.894531 115.671875 246.734375 114.988281 246.53125 114.3125 C 246.328125 113.636719 246.089844 112.976562 245.808594 112.332031 C 245.53125 111.683594 245.214844 111.054688 244.863281 110.445312 C 244.507812 109.835938 244.121094 109.246094 243.699219 108.683594 C 243.28125 108.117188 242.828125 107.578125 242.34375 107.066406 C 241.859375 106.554688 241.347656 106.070312 240.808594 105.617188 C 240.269531 105.164062 239.703125 104.746094 239.117188 104.359375 C 238.527344 103.972656 237.917969 103.621094 237.289062 103.304688 C 236.65625 102.988281 236.011719 102.710938 235.347656 102.46875 L 235.347656 57.367188 L 317.632812 57.367188 Z M 271.1875 147.445312 C 271.1875 147.828125 271.152344 148.203125 271.078125 148.578125 C 271.003906 148.953125 270.890625 149.316406 270.746094 149.667969 C 270.601562 150.023438 270.421875 150.355469 270.207031 150.675781 C 269.996094 150.992188 269.753906 151.285156 269.484375 151.554688 C 269.214844 151.824219 268.921875 152.066406 268.605469 152.277344 C 268.289062 152.492188 267.953125 152.667969 267.597656 152.816406 C 267.246094 152.960938 266.882812 153.070312 266.507812 153.144531 C 266.132812 153.222656 265.757812 153.257812 265.375 153.257812 C 264.992188 153.257812 264.613281 153.222656 264.242188 153.144531 C 263.867188 153.070312 263.503906 152.960938 263.148438 152.816406 C 262.796875 152.667969 262.460938 152.492188 262.144531 152.277344 C 261.828125 152.066406 261.535156 151.824219 261.265625 151.554688 C 260.992188 151.285156 260.753906 150.992188 260.539062 150.675781 C 260.328125 150.355469 260.148438 150.023438 260.003906 149.667969 C 259.859375 149.316406 259.746094 148.953125 259.671875 148.578125 C 259.597656 148.203125 259.5625 147.828125 259.5625 147.445312 C 259.5625 147.0625 259.597656 146.683594 259.671875 146.308594 C 259.746094 145.9375 259.859375 145.574219 260.003906 145.21875 C 260.148438 144.867188 260.328125 144.53125 260.539062 144.214844 C 260.753906 143.898438 260.992188 143.605469 261.265625 143.332031 C 261.535156 143.0625 261.828125 142.824219 262.144531 142.609375 C 262.460938 142.398438 262.796875 142.21875 263.148438 142.074219 C 263.503906 141.925781 263.867188 141.816406 264.242188 141.742188 C 264.613281 141.667969 264.992188 141.632812 265.375 141.632812 C 265.75 141.617188 266.125 141.640625 266.496094 141.703125 C 266.871094 141.761719 267.234375 141.855469 267.585938 141.988281 C 267.941406 142.117188 268.277344 142.28125 268.597656 142.476562 C 268.921875 142.671875 269.222656 142.898438 269.5 143.152344 C 269.777344 143.40625 270.027344 143.683594 270.25 143.988281 C 270.476562 144.292969 270.667969 144.613281 270.828125 144.953125 C 270.992188 145.292969 271.117188 145.648438 271.210938 146.011719 C 271.304688 146.378906 271.359375 146.75 271.378906 147.125 Z M 257.964844 190.503906 C 257.964844 190.882812 257.925781 191.261719 257.851562 191.636719 C 257.777344 192.011719 257.667969 192.375 257.523438 192.726562 C 257.375 193.078125 257.195312 193.414062 256.984375 193.730469 C 256.773438 194.050781 256.53125 194.34375 256.261719 194.613281 C 255.992188 194.882812 255.699219 195.125 255.378906 195.335938 C 255.0625 195.546875 254.726562 195.726562 254.375 195.875 C 254.023438 196.019531 253.660156 196.128906 253.285156 196.203125 C 252.910156 196.277344 252.53125 196.316406 252.152344 196.316406 C 251.769531 196.316406 251.390625 196.277344 251.015625 196.203125 C 250.640625 196.128906 250.277344 196.019531 249.925781 195.875 C 249.574219 195.726562 249.238281 195.546875 248.921875 195.335938 C 248.605469 195.125 248.308594 194.882812 248.039062 194.613281 C 247.769531 194.34375 247.527344 194.050781 247.316406 193.730469 C 247.105469 193.414062 246.925781 193.078125 246.78125 192.726562 C 246.632812 192.375 246.523438 192.011719 246.449219 191.636719 C 246.375 191.261719 246.335938 190.882812 246.335938 190.503906 C 246.335938 190.121094 246.375 189.742188 246.449219 189.367188 C 246.523438 188.992188 246.632812 188.628906 246.78125 188.277344 C 246.925781 187.925781 247.105469 187.589844 247.316406 187.273438 C 247.527344 186.957031 247.769531 186.660156 248.039062 186.390625 C 248.308594 186.121094 248.605469 185.878906 248.921875 185.667969 C 249.238281 185.457031 249.574219 185.277344 249.925781 185.132812 C 250.277344 184.984375 250.640625 184.875 251.015625 184.800781 C 251.390625 184.726562 251.769531 184.6875 252.152344 184.6875 C 252.527344 184.675781 252.902344 184.699219 253.273438 184.757812 C 253.644531 184.820312 254.007812 184.914062 254.363281 185.042969 C 254.714844 185.175781 255.054688 185.339844 255.375 185.535156 C 255.695312 185.730469 255.996094 185.957031 256.273438 186.210938 C 256.554688 186.464844 256.804688 186.742188 257.027344 187.046875 C 257.25 187.347656 257.445312 187.671875 257.605469 188.011719 C 257.765625 188.351562 257.894531 188.707031 257.984375 189.070312 C 258.078125 189.4375 258.136719 189.808594 258.15625 190.183594 Z M 257.453125 234.328125 C 257.453125 233.945312 257.492188 233.566406 257.566406 233.191406 C 257.640625 232.820312 257.75 232.453125 257.894531 232.101562 C 258.042969 231.75 258.222656 231.414062 258.433594 231.097656 C 258.644531 230.78125 258.886719 230.484375 259.15625 230.214844 C 259.425781 229.945312 259.71875 229.707031 260.035156 229.492188 C 260.355469 229.28125 260.6875 229.101562 261.042969 228.957031 C 261.394531 228.808594 261.757812 228.699219 262.132812 228.625 C 262.507812 228.550781 262.886719 228.511719 263.265625 228.511719 C 263.648438 228.511719 264.027344 228.550781 264.402344 228.625 C 264.773438 228.699219 265.136719 228.808594 265.492188 228.957031 C 265.84375 229.101562 266.179688 229.28125 266.496094 229.492188 C 266.8125 229.707031 267.105469 229.945312 267.378906 230.214844 C 267.648438 230.484375 267.886719 230.78125 268.101562 231.097656 C 268.3125 231.414062 268.492188 231.75 268.636719 232.101562 C 268.785156 232.453125 268.894531 232.820312 268.96875 233.191406 C 269.042969 233.566406 269.078125 233.945312 269.078125 234.328125 C 269.078125 234.707031 269.042969 235.085938 268.96875 235.460938 C 268.894531 235.835938 268.785156 236.199219 268.636719 236.550781 C 268.492188 236.90625 268.3125 237.238281 268.101562 237.558594 C 267.886719 237.875 267.648438 238.167969 267.378906 238.4375 C 267.105469 238.707031 266.8125 238.949219 266.496094 239.160156 C 266.179688 239.371094 265.84375 239.550781 265.492188 239.699219 C 265.136719 239.84375 264.773438 239.953125 264.402344 240.027344 C 264.027344 240.101562 263.648438 240.140625 263.265625 240.140625 C 262.886719 240.140625 262.507812 240.101562 262.132812 240.027344 C 261.757812 239.953125 261.394531 239.84375 261.042969 239.699219 C 260.6875 239.550781 260.355469 239.371094 260.035156 239.160156 C 259.71875 238.949219 259.425781 238.707031 259.15625 238.4375 C 258.886719 238.167969 258.644531 237.875 258.433594 237.558594 C 258.222656 237.238281 258.042969 236.90625 257.894531 236.550781 C 257.75 236.199219 257.640625 235.835938 257.566406 235.460938 C 257.492188 235.085938 257.453125 234.707031 257.453125 234.328125 Z M 211.457031 234.328125 C 211.457031 233.945312 211.492188 233.566406 211.566406 233.191406 C 211.644531 232.820312 211.753906 232.453125 211.898438 232.101562 C 212.046875 231.75 212.222656 231.414062 212.4375 231.097656 C 212.648438 230.78125 212.890625 230.484375 213.160156 230.214844 C 213.429688 229.945312 213.722656 229.707031 214.039062 229.492188 C 214.359375 229.28125 214.691406 229.101562 215.046875 228.957031 C 215.398438 228.808594 215.761719 228.699219 216.136719 228.625 C 216.511719 228.550781 216.886719 228.511719 217.269531 228.511719 C 217.652344 228.511719 218.03125 228.550781 218.402344 228.625 C 218.777344 228.699219 219.140625 228.808594 219.496094 228.957031 C 219.847656 229.101562 220.183594 229.28125 220.5 229.492188 C 220.816406 229.707031 221.109375 229.945312 221.378906 230.214844 C 221.652344 230.484375 221.890625 230.78125 222.105469 231.097656 C 222.316406 231.414062 222.496094 231.75 222.640625 232.101562 C 222.785156 232.453125 222.898438 232.820312 222.972656 233.191406 C 223.046875 233.566406 223.082031 233.945312 223.082031 234.328125 C 223.082031 234.707031 223.046875 235.085938 222.972656 235.460938 C 222.898438 235.835938 222.785156 236.199219 222.640625 236.550781 C 222.496094 236.90625 222.316406 237.238281 222.105469 237.558594 C 221.890625 237.875 221.652344 238.167969 221.378906 238.4375 C 221.109375 238.707031 220.816406 238.949219 220.5 239.160156 C 220.183594 239.371094 219.847656 239.550781 219.496094 239.699219 C 219.140625 239.84375 218.777344 239.953125 218.402344 240.027344 C 218.03125 240.101562 217.652344 240.140625 217.269531 240.140625 C 216.882812 240.148438 216.5 240.121094 216.117188 240.050781 C 215.738281 239.984375 215.367188 239.878906 215.007812 239.734375 C 214.644531 239.59375 214.304688 239.417969 213.980469 239.207031 C 213.652344 238.996094 213.351562 238.753906 213.078125 238.484375 C 212.800781 238.210938 212.550781 237.917969 212.335938 237.597656 C 212.117188 237.277344 211.933594 236.9375 211.78125 236.582031 C 211.632812 236.226562 211.519531 235.855469 211.441406 235.476562 C 211.367188 235.097656 211.328125 234.714844 211.328125 234.328125 Z M 166.738281 252.214844 C 166.738281 251.832031 166.773438 251.453125 166.847656 251.082031 C 166.921875 250.707031 167.035156 250.34375 167.179688 249.988281 C 167.328125 249.636719 167.503906 249.300781 167.71875 248.984375 C 167.929688 248.667969 168.171875 248.375 168.441406 248.105469 C 168.710938 247.832031 169.003906 247.59375 169.320312 247.378906 C 169.636719 247.167969 169.972656 246.988281 170.328125 246.84375 C 170.679688 246.699219 171.042969 246.585938 171.417969 246.511719 C 171.792969 246.4375 172.167969 246.402344 172.550781 246.402344 C 172.933594 246.402344 173.3125 246.4375 173.683594 246.511719 C 174.058594 246.585938 174.421875 246.699219 174.777344 246.84375 C 175.128906 246.988281 175.464844 247.167969 175.78125 247.378906 C 176.097656 247.59375 176.390625 247.832031 176.660156 248.105469 C 176.933594 248.375 177.171875 248.667969 177.382812 248.984375 C 177.597656 249.300781 177.777344 249.636719 177.921875 249.988281 C 178.066406 250.34375 178.179688 250.707031 178.253906 251.082031 C 178.328125 251.453125 178.363281 251.832031 178.363281 252.214844 C 178.363281 252.597656 178.328125 252.972656 178.253906 253.347656 C 178.179688 253.722656 178.066406 254.085938 177.921875 254.4375 C 177.777344 254.792969 177.597656 255.125 177.386719 255.445312 C 177.171875 255.761719 176.933594 256.054688 176.660156 256.324219 C 176.390625 256.59375 176.097656 256.835938 175.78125 257.046875 C 175.464844 257.261719 175.128906 257.4375 174.777344 257.585938 C 174.421875 257.730469 174.058594 257.84375 173.683594 257.917969 C 173.3125 257.992188 172.933594 258.027344 172.550781 258.027344 C 172.164062 258.035156 171.78125 258.007812 171.398438 257.9375 C 171.019531 257.871094 170.648438 257.765625 170.289062 257.621094 C 169.925781 257.480469 169.585938 257.304688 169.261719 257.09375 C 168.933594 256.882812 168.632812 256.640625 168.359375 256.371094 C 168.082031 256.101562 167.832031 255.804688 167.617188 255.484375 C 167.398438 255.164062 167.214844 254.824219 167.0625 254.46875 C 166.914062 254.113281 166.800781 253.746094 166.722656 253.363281 C 166.648438 252.984375 166.609375 252.601562 166.609375 252.214844 Z M 119.207031 199.445312 C 119.207031 199.066406 119.246094 198.6875 119.320312 198.3125 C 119.394531 197.9375 119.503906 197.574219 119.648438 197.222656 C 119.796875 196.867188 119.976562 196.535156 120.1875 196.214844 C 120.398438 195.898438 120.640625 195.605469 120.910156 195.335938 C 121.179688 195.066406 121.472656 194.824219 121.792969 194.613281 C 122.109375 194.402344 122.445312 194.222656 122.796875 194.074219 C 123.148438 193.929688 123.511719 193.820312 123.886719 193.746094 C 124.261719 193.671875 124.640625 193.632812 125.019531 193.632812 C 125.402344 193.632812 125.78125 193.671875 126.15625 193.746094 C 126.53125 193.820312 126.894531 193.929688 127.246094 194.074219 C 127.597656 194.222656 127.933594 194.402344 128.25 194.613281 C 128.570312 194.824219 128.863281 195.066406 129.132812 195.335938 C 129.402344 195.605469 129.644531 195.898438 129.855469 196.214844 C 130.066406 196.535156 130.246094 196.867188 130.390625 197.222656 C 130.539062 197.574219 130.648438 197.9375 130.722656 198.3125 C 130.796875 198.6875 130.835938 199.066406 130.835938 199.445312 C 130.835938 199.828125 130.796875 200.207031 130.722656 200.582031 C 130.648438 200.953125 130.539062 201.316406 130.390625 201.671875 C 130.246094 202.023438 130.066406 202.359375 129.855469 202.675781 C 129.644531 202.992188 129.402344 203.289062 129.132812 203.558594 C 128.863281 203.828125 128.570312 204.066406 128.25 204.28125 C 127.933594 204.492188 127.597656 204.671875 127.246094 204.816406 C 126.894531 204.964844 126.53125 205.074219 126.15625 205.148438 C 125.78125 205.222656 125.402344 205.261719 125.019531 205.261719 C 124.636719 205.265625 124.253906 205.230469 123.875 205.160156 C 123.492188 205.089844 123.125 204.980469 122.765625 204.835938 C 122.410156 204.691406 122.070312 204.515625 121.746094 204.304688 C 121.421875 204.09375 121.121094 203.851562 120.847656 203.582031 C 120.570312 203.3125 120.324219 203.019531 120.105469 202.699219 C 119.886719 202.382812 119.703125 202.046875 119.550781 201.691406 C 119.398438 201.335938 119.285156 200.96875 119.207031 200.589844 C 119.125 200.214844 119.085938 199.832031 119.078125 199.445312 Z M 82.984375 153.449219 C 82.984375 153.066406 83.023438 152.691406 83.097656 152.316406 C 83.171875 151.941406 83.28125 151.578125 83.429688 151.226562 C 83.574219 150.871094 83.753906 150.539062 83.964844 150.21875 C 84.175781 149.902344 84.417969 149.609375 84.6875 149.339844 C 84.957031 149.070312 85.25 148.828125 85.570312 148.617188 C 85.886719 148.402344 86.222656 148.226562 86.574219 148.078125 C 86.925781 147.933594 87.289062 147.824219 87.664062 147.746094 C 88.039062 147.671875 88.417969 147.636719 88.800781 147.636719 C 89.179688 147.636719 89.558594 147.671875 89.933594 147.746094 C 90.308594 147.824219 90.671875 147.933594 91.023438 148.078125 C 91.375 148.226562 91.710938 148.402344 92.027344 148.617188 C 92.347656 148.828125 92.640625 149.070312 92.910156 149.339844 C 93.179688 149.609375 93.421875 149.902344 93.632812 150.21875 C 93.84375 150.539062 94.023438 150.871094 94.167969 151.226562 C 94.316406 151.578125 94.425781 151.941406 94.5 152.316406 C 94.574219 152.691406 94.613281 153.066406 94.613281 153.449219 C 94.613281 153.832031 94.574219 154.210938 94.5 154.582031 C 94.425781 154.957031 94.316406 155.320312 94.167969 155.675781 C 94.023438 156.027344 93.84375 156.363281 93.632812 156.679688 C 93.421875 156.996094 93.179688 157.289062 92.910156 157.558594 C 92.640625 157.832031 92.347656 158.070312 92.027344 158.285156 C 91.710938 158.496094 91.375 158.675781 91.023438 158.820312 C 90.671875 158.964844 90.308594 159.078125 89.933594 159.152344 C 89.558594 159.226562 89.179688 159.261719 88.800781 159.261719 C 88.410156 159.273438 88.027344 159.242188 87.648438 159.171875 C 87.265625 159.105469 86.894531 159 86.535156 158.859375 C 86.175781 158.714844 85.832031 158.539062 85.507812 158.328125 C 85.183594 158.117188 84.882812 157.878906 84.605469 157.605469 C 84.328125 157.335938 84.082031 157.039062 83.863281 156.71875 C 83.644531 156.398438 83.460938 156.0625 83.3125 155.703125 C 83.160156 155.347656 83.050781 154.980469 82.972656 154.601562 C 82.894531 154.21875 82.859375 153.835938 82.859375 153.449219 Z M 137.351562 137.414062 C 137.351562 137.796875 137.3125 138.175781 137.238281 138.550781 C 137.164062 138.921875 137.054688 139.285156 136.910156 139.640625 C 136.761719 139.992188 136.582031 140.328125 136.371094 140.644531 C 136.160156 140.960938 135.917969 141.253906 135.648438 141.527344 C 135.378906 141.796875 135.085938 142.035156 134.765625 142.25 C 134.449219 142.460938 134.113281 142.640625 133.761719 142.785156 C 133.410156 142.933594 133.046875 143.042969 132.671875 143.117188 C 132.296875 143.191406 131.917969 143.226562 131.539062 143.226562 C 131.15625 143.226562 130.777344 143.191406 130.402344 143.117188 C 130.027344 143.042969 129.664062 142.933594 129.3125 142.785156 C 128.960938 142.640625 128.625 142.460938 128.308594 142.25 C 127.992188 142.035156 127.695312 141.796875 127.425781 141.527344 C 127.15625 141.253906 126.914062 140.960938 126.703125 140.644531 C 126.492188 140.328125 126.3125 139.992188 126.167969 139.640625 C 126.019531 139.285156 125.910156 138.921875 125.835938 138.550781 C 125.761719 138.175781 125.722656 137.796875 125.722656 137.414062 C 125.722656 137.03125 125.761719 136.65625 125.835938 136.28125 C 125.910156 135.90625 126.019531 135.542969 126.167969 135.191406 C 126.3125 134.835938 126.492188 134.503906 126.703125 134.183594 C 126.914062 133.867188 127.15625 133.574219 127.425781 133.304688 C 127.695312 133.035156 127.992188 132.792969 128.308594 132.582031 C 128.625 132.367188 128.960938 132.191406 129.3125 132.042969 C 129.664062 131.898438 130.027344 131.789062 130.402344 131.714844 C 130.777344 131.636719 131.15625 131.601562 131.539062 131.601562 C 131.914062 131.609375 132.285156 131.652344 132.652344 131.734375 C 133.019531 131.816406 133.378906 131.929688 133.722656 132.078125 C 134.066406 132.230469 134.394531 132.410156 134.707031 132.625 C 135.015625 132.839844 135.300781 133.078125 135.566406 133.347656 C 135.828125 133.617188 136.0625 133.910156 136.269531 134.222656 C 136.476562 134.539062 136.652344 134.871094 136.792969 135.21875 C 136.933594 135.566406 137.042969 135.925781 137.113281 136.296875 C 137.1875 136.664062 137.222656 137.039062 137.222656 137.414062 Z M 182.070312 119.527344 C 182.070312 119.910156 182.03125 120.285156 181.957031 120.660156 C 181.882812 121.035156 181.773438 121.398438 181.628906 121.75 C 181.480469 122.105469 181.300781 122.441406 181.089844 122.757812 C 180.878906 123.074219 180.636719 123.367188 180.367188 123.636719 C 180.097656 123.90625 179.804688 124.148438 179.484375 124.359375 C 179.167969 124.574219 178.832031 124.753906 178.480469 124.898438 C 178.128906 125.042969 177.765625 125.15625 177.390625 125.230469 C 177.015625 125.304688 176.636719 125.339844 176.257812 125.339844 C 175.875 125.339844 175.496094 125.304688 175.121094 125.230469 C 174.746094 125.15625 174.382812 125.042969 174.03125 124.898438 C 173.679688 124.753906 173.34375 124.574219 173.027344 124.359375 C 172.710938 124.148438 172.414062 123.90625 172.144531 123.636719 C 171.875 123.367188 171.632812 123.074219 171.421875 122.757812 C 171.210938 122.441406 171.03125 122.105469 170.886719 121.75 C 170.738281 121.398438 170.628906 121.035156 170.554688 120.660156 C 170.480469 120.285156 170.441406 119.910156 170.441406 119.527344 C 170.441406 119.144531 170.480469 118.765625 170.554688 118.394531 C 170.628906 118.019531 170.738281 117.65625 170.886719 117.300781 C 171.03125 116.949219 171.210938 116.613281 171.421875 116.296875 C 171.632812 115.980469 171.875 115.6875 172.144531 115.417969 C 172.414062 115.148438 172.710938 114.90625 173.027344 114.695312 C 173.34375 114.480469 173.679688 114.300781 174.03125 114.15625 C 174.382812 114.011719 174.746094 113.898438 175.121094 113.824219 C 175.496094 113.75 175.875 113.714844 176.257812 113.714844 C 176.632812 113.722656 177.003906 113.765625 177.371094 113.847656 C 177.738281 113.925781 178.097656 114.042969 178.441406 114.191406 C 178.789062 114.34375 179.113281 114.523438 179.425781 114.738281 C 179.734375 114.949219 180.023438 115.191406 180.285156 115.460938 C 180.546875 115.730469 180.78125 116.023438 180.988281 116.335938 C 181.195312 116.652344 181.371094 116.984375 181.511719 117.332031 C 181.652344 117.679688 181.761719 118.039062 181.832031 118.410156 C 181.90625 118.777344 181.941406 119.152344 181.941406 119.527344 Z M 182.070312 119.527344 " fill-opacity="1" fill-rule="nonzero"/></svg>