<svg xmlns="http://www.w3.org/2000/svg" xmlns:xlink="http://www.w3.org/1999/xlink" width="500" zoomAndPan="magnify" viewBox="0 0 375 374.999991" height="500" preserveAspectRatio="xMidYMid meet" version="1.0"><path fill="#000000" d="M 237.675781 178.332031 L 144.59375 178.332031 C 142.273438 178.332031 139.953125 176.9375 136.238281 175.082031 C 126.488281 170.207031 106.296875 160.226562 67.761719 160.226562 C 65.675781 160.226562 63.816406 158.371094 63.816406 156.28125 C 63.816406 154.191406 65.675781 152.335938 67.761719 152.335938 C 108.152344 152.335938 129.507812 163.011719 139.722656 168.117188 C 141.578125 169.28125 143.898438 170.441406 144.59375 170.441406 L 237.445312 170.441406 C 238.371094 170.441406 240.460938 169.28125 242.550781 168.117188 C 252.53125 163.011719 273.65625 152.335938 314.507812 152.335938 C 316.597656 152.335938 318.222656 154.191406 318.222656 156.28125 C 318.222656 158.371094 316.597656 160.226562 314.507812 160.226562 C 275.511719 160.226562 255.550781 170.207031 246.03125 175.082031 C 242.085938 177.171875 239.765625 178.332031 237.675781 178.332031 Z M 314.507812 131.675781 L 67.761719 131.675781 C 65.675781 131.675781 63.816406 129.820312 63.816406 127.730469 C 63.816406 125.640625 65.675781 123.785156 67.761719 123.785156 L 314.507812 123.785156 C 316.597656 123.785156 318.222656 125.640625 318.222656 127.730469 C 318.222656 129.820312 316.597656 131.675781 314.507812 131.675781 Z M 314.507812 131.675781 " fill-opacity="1" fill-rule="evenodd"/><path fill="#000000" d="M 133.222656 131.675781 C 132.757812 131.675781 132.292969 131.445312 131.828125 131.210938 C 129.738281 130.515625 128.8125 128.195312 129.507812 126.335938 L 136.472656 109.390625 C 139.023438 103.355469 143.433594 92.214844 155.039062 92.214844 L 227.230469 92.214844 C 238.140625 92.214844 242.550781 101.964844 245.566406 109.160156 C 245.566406 109.160156 245.566406 109.160156 245.566406 109.390625 L 252.53125 126.335938 C 253.460938 128.195312 252.53125 130.515625 250.441406 131.210938 C 248.585938 132.140625 246.265625 131.210938 245.335938 129.121094 L 238.371094 112.175781 C 234.890625 104.054688 232.105469 100.105469 227.230469 100.105469 L 155.039062 100.105469 C 149.703125 100.105469 146.917969 104.515625 143.667969 112.175781 L 136.703125 129.121094 C 136.238281 130.746094 134.613281 131.675781 133.222656 131.675781 Z M 133.222656 131.675781 " fill-opacity="1" fill-rule="evenodd"/><path fill="#000000" d="M 82.15625 263.984375 L 72.171875 263.984375 C 67.996094 263.984375 64.511719 260.734375 64.511719 256.789062 L 64.511719 231.257812 C 64.511719 230.328125 64.746094 229.632812 65.210938 228.933594 L 103.972656 175.082031 C 111.867188 163.011719 119.757812 163.011719 122.078125 163.246094 L 128.347656 163.246094 C 130.4375 163.246094 132.292969 165.101562 132.292969 167.191406 C 132.292969 169.28125 130.4375 171.136719 128.347656 171.136719 L 121.847656 171.136719 C 121.382812 171.136719 121.382812 171.136719 120.917969 170.902344 C 120.453125 170.902344 115.8125 171.136719 110.472656 179.492188 C 110.472656 179.492188 110.472656 179.492188 110.242188 179.726562 L 72.40625 232.417969 L 72.40625 256.324219 L 81.691406 256.324219 L 81.691406 243.328125 C 81.691406 242.398438 81.921875 241.703125 82.386719 241.003906 L 115.117188 193.1875 C 115.8125 192.257812 116.972656 191.5625 118.367188 191.5625 L 152.023438 191.5625 C 154.113281 191.5625 155.96875 193.421875 155.96875 195.507812 C 155.96875 197.597656 154.113281 199.222656 152.023438 199.222656 L 120.453125 199.222656 L 89.582031 244.488281 L 89.582031 256.789062 C 89.582031 260.734375 86.101562 263.984375 82.15625 263.984375 Z M 82.15625 263.984375 " fill-opacity="1" fill-rule="evenodd"/><path fill="#000000" d="M 310.097656 263.984375 L 300.117188 263.984375 C 295.9375 263.984375 292.6875 260.96875 292.6875 256.789062 L 292.6875 244.488281 L 261.816406 199.222656 L 230.25 199.222656 C 228.160156 199.222656 226.300781 197.597656 226.300781 195.507812 C 226.300781 193.421875 228.160156 191.5625 230.25 191.5625 L 263.90625 191.5625 C 265.066406 191.5625 266.226562 192.257812 267.15625 193.1875 L 299.886719 241.003906 C 300.117188 241.703125 300.347656 242.398438 300.347656 243.328125 L 300.347656 256.324219 L 309.632812 256.324219 L 309.632812 232.417969 L 271.566406 179.726562 C 271.566406 179.492188 271.566406 179.492188 271.566406 179.492188 C 266.226562 171.136719 261.816406 170.902344 261.121094 170.902344 C 260.886719 171.136719 260.65625 170.902344 260.425781 171.136719 L 253.691406 171.136719 C 251.601562 171.136719 249.746094 169.28125 249.746094 167.191406 C 249.746094 165.101562 251.601562 163.246094 253.691406 163.246094 L 259.960938 163.246094 C 262.28125 163.011719 270.171875 163.011719 278.066406 175.316406 L 316.597656 228.933594 C 317.0625 229.632812 317.292969 230.328125 317.292969 231.257812 L 317.292969 256.789062 C 317.292969 260.734375 314.042969 263.984375 310.097656 263.984375 Z M 310.097656 263.984375 " fill-opacity="1" fill-rule="evenodd"/><path fill="#000000" d="M 58.015625 108.925781 C 55.925781 108.925781 54.066406 107.070312 54.066406 104.980469 L 54.066406 91.519531 C 54.066406 88.035156 51.515625 85.484375 48.03125 85.484375 C 44.78125 85.484375 42.230469 88.035156 42.230469 91.519531 L 42.230469 104.980469 C 42.230469 107.070312 40.371094 108.925781 38.285156 108.925781 C 36.195312 108.925781 34.335938 107.070312 34.335938 104.980469 L 34.335938 91.519531 C 34.335938 83.859375 40.605469 77.589844 48.03125 77.589844 C 55.691406 77.589844 61.960938 83.625 61.960938 91.519531 L 61.960938 104.980469 C 61.960938 107.070312 60.101562 108.925781 58.015625 108.925781 Z M 58.015625 108.925781 " fill-opacity="1" fill-rule="evenodd"/><path fill="#000000" d="M 38.285156 95.464844 L -3.035156 95.464844 C -5.125 95.464844 -6.980469 93.609375 -6.980469 91.519531 C -6.980469 89.429688 -5.125 87.574219 -3.035156 87.574219 L 38.285156 87.574219 C 40.371094 87.574219 42.230469 89.429688 42.230469 91.519531 C 42.230469 93.609375 40.371094 95.464844 38.285156 95.464844 Z M 38.285156 95.464844 " fill-opacity="1" fill-rule="evenodd"/><path fill="#000000" d="M 99.332031 95.464844 L 58.015625 95.464844 C 55.925781 95.464844 54.066406 93.609375 54.066406 91.519531 C 54.066406 89.429688 55.925781 87.574219 58.015625 87.574219 L 99.332031 87.574219 C 101.421875 87.574219 103.277344 89.429688 103.277344 91.519531 C 103.277344 93.609375 101.421875 95.464844 99.332031 95.464844 Z M 99.332031 95.464844 " fill-opacity="1" fill-rule="evenodd"/><path fill="#000000" d="M 53.140625 195.277344 L 28.535156 195.277344 C 26.445312 195.277344 24.589844 193.652344 24.589844 191.5625 L 24.589844 121.925781 C 24.589844 108.925781 35.035156 98.25 48.03125 98.25 C 61.03125 98.25 71.710938 108.925781 71.710938 121.925781 L 71.710938 162.546875 C 71.710938 163.011719 71.476562 163.707031 71.246094 164.171875 L 56.621094 193.1875 C 55.925781 194.582031 54.53125 195.277344 53.140625 195.277344 Z M 32.480469 187.617188 L 50.816406 187.617188 L 63.816406 161.621094 L 63.816406 121.925781 C 63.816406 113.105469 56.851562 106.140625 48.03125 106.140625 C 39.445312 106.140625 32.480469 113.105469 32.480469 121.925781 Z M 32.480469 187.617188 " fill-opacity="1" fill-rule="evenodd"/><path fill="#000000" d="M 343.988281 108.925781 C 341.898438 108.925781 340.042969 107.070312 340.042969 104.980469 L 340.042969 91.519531 C 340.042969 88.035156 337.488281 85.484375 334.007812 85.484375 C 330.757812 85.484375 327.972656 88.035156 327.972656 91.519531 L 327.972656 104.980469 C 327.972656 107.070312 326.347656 108.925781 324.257812 108.925781 C 322.167969 108.925781 320.3125 107.070312 320.3125 104.980469 L 320.3125 91.519531 C 320.3125 83.859375 326.347656 77.589844 334.007812 77.589844 C 341.667969 77.589844 347.703125 83.625 347.703125 91.519531 L 347.703125 104.980469 C 347.703125 107.070312 346.078125 108.925781 343.988281 108.925781 Z M 343.988281 108.925781 " fill-opacity="1" fill-rule="evenodd"/><path fill="#000000" d="M 385.304688 95.464844 L 343.988281 95.464844 C 341.898438 95.464844 340.042969 93.609375 340.042969 91.519531 C 340.042969 89.429688 341.898438 87.574219 343.988281 87.574219 L 385.304688 87.574219 C 387.394531 87.574219 389.019531 89.429688 389.019531 91.519531 C 389.019531 93.609375 387.394531 95.464844 385.304688 95.464844 Z M 385.304688 95.464844 " fill-opacity="1" fill-rule="evenodd"/><path fill="#000000" d="M 324.257812 95.464844 L 282.941406 95.464844 C 280.851562 95.464844 278.992188 93.609375 278.992188 91.519531 C 278.992188 89.429688 280.851562 87.574219 282.941406 87.574219 L 324.257812 87.574219 C 326.347656 87.574219 327.972656 89.429688 327.972656 91.519531 C 327.972656 93.609375 326.347656 95.464844 324.257812 95.464844 Z M 324.257812 95.464844 " fill-opacity="1" fill-rule="evenodd"/><path fill="#000000" d="M 353.738281 195.277344 L 328.898438 195.277344 C 327.273438 195.277344 326.113281 194.582031 325.417969 193.1875 L 311.027344 164.171875 C 310.792969 163.707031 310.5625 163.011719 310.5625 162.546875 L 310.5625 121.925781 C 310.5625 108.925781 321.007812 98.25 334.007812 98.25 C 347.003906 98.25 357.449219 108.925781 357.449219 121.925781 L 357.449219 191.5625 C 357.449219 193.652344 355.828125 195.277344 353.738281 195.277344 Z M 331.222656 187.617188 L 349.792969 187.617188 L 349.792969 121.925781 C 349.792969 113.105469 342.59375 106.140625 334.007812 106.140625 C 325.417969 106.140625 318.222656 113.105469 318.222656 121.925781 L 318.222656 161.621094 Z M 331.222656 187.617188 " fill-opacity="1" fill-rule="evenodd"/><path fill="#000000" d="M 221.195312 217.097656 L 160.84375 217.097656 C 153.648438 217.097656 148.078125 211.527344 148.078125 204.328125 L 148.078125 195.507812 C 148.078125 193.421875 149.933594 191.5625 152.023438 191.5625 L 230.25 191.5625 C 232.335938 191.5625 233.960938 193.421875 233.960938 195.507812 L 233.960938 204.328125 C 233.960938 211.527344 228.390625 217.097656 221.195312 217.097656 Z M 155.96875 199.222656 L 155.96875 204.328125 C 155.96875 207.117188 158.058594 209.4375 160.84375 209.4375 L 221.195312 209.4375 C 224.214844 209.4375 226.300781 207.347656 226.300781 204.328125 L 226.300781 199.222656 Z M 155.96875 199.222656 " fill-opacity="1" fill-rule="evenodd"/><path fill="#000000" d="M 200.074219 240.539062 C 197.984375 240.539062 196.125 238.914062 196.125 236.828125 L 196.125 213.382812 C 196.125 211.292969 197.984375 209.4375 200.074219 209.4375 C 202.160156 209.4375 203.785156 211.292969 203.785156 213.382812 L 203.785156 236.828125 C 203.785156 238.914062 202.160156 240.539062 200.074219 240.539062 Z M 182.199219 240.539062 C 180.109375 240.539062 178.253906 238.914062 178.253906 236.828125 L 178.253906 213.382812 C 178.253906 211.292969 180.109375 209.4375 182.199219 209.4375 C 184.289062 209.4375 186.144531 211.292969 186.144531 213.382812 L 186.144531 236.828125 C 186.144531 238.914062 184.289062 240.539062 182.199219 240.539062 Z M 182.199219 240.539062 " fill-opacity="1" fill-rule="evenodd"/><path fill="#000000" d="M 213.769531 297.179688 L 168.273438 297.179688 C 162.238281 297.179688 157.128906 292.070312 157.128906 286.035156 L 157.128906 244.253906 C 157.128906 237.988281 162.238281 232.878906 168.273438 232.878906 L 213.769531 232.878906 C 220.035156 232.878906 224.910156 237.988281 224.910156 244.253906 L 224.910156 286.035156 C 224.910156 292.304688 220.035156 297.179688 213.769531 297.179688 Z M 168.273438 240.539062 C 166.414062 240.539062 165.023438 242.164062 165.023438 244.253906 L 165.023438 286.035156 C 165.023438 287.894531 166.414062 289.519531 168.273438 289.519531 L 213.769531 289.519531 C 215.855469 289.519531 217.25 287.660156 217.25 286.035156 L 217.25 244.253906 C 217.25 242.164062 215.855469 240.539062 213.769531 240.539062 Z M 168.273438 240.539062 " fill-opacity="1" fill-rule="evenodd"/><path fill="#000000" d="M 191.019531 285.109375 C 180.109375 285.109375 170.824219 276.054688 170.824219 265.144531 C 170.824219 254.003906 179.878906 244.949219 191.019531 244.949219 C 202.160156 244.949219 210.980469 253.773438 210.980469 265.144531 C 210.980469 276.289062 202.160156 285.109375 191.019531 285.109375 Z M 191.019531 252.609375 C 184.054688 252.609375 178.71875 258.183594 178.71875 265.144531 C 178.71875 271.878906 184.289062 277.449219 191.019531 277.449219 C 197.75 277.449219 203.320312 271.878906 203.320312 265.144531 C 203.320312 258.183594 197.984375 252.609375 191.019531 252.609375 Z M 191.019531 252.609375 " fill-opacity="1" fill-rule="evenodd"/><path fill="#000000" d="M 191.484375 268.859375 L 190.789062 268.859375 C 188.699219 268.859375 186.839844 267.234375 186.839844 265.144531 C 186.839844 263.058594 188.699219 261.199219 190.789062 261.199219 L 191.484375 261.199219 C 193.574219 261.199219 195.429688 263.058594 195.429688 265.144531 C 195.429688 267.234375 193.574219 268.859375 191.484375 268.859375 Z M 191.484375 268.859375 " fill-opacity="1" fill-rule="evenodd"/></svg>