<svg xmlns="http://www.w3.org/2000/svg" xmlns:xlink="http://www.w3.org/1999/xlink" width="500" zoomAndPan="magnify" viewBox="0 0 375 374.999991" height="500" preserveAspectRatio="xMidYMid meet" version="1.0"><defs><clipPath id="aea21ba579"><path d="M 153 131 L 213 131 L 213 203 L 153 203 Z M 153 131 " clip-rule="nonzero"/></clipPath><clipPath id="3be37afd8e"><path d="M 402.074219 45.082031 L -51.4375 427.539062 L -113.808594 353.578125 L 339.703125 -28.878906 Z M 402.074219 45.082031 " clip-rule="nonzero"/></clipPath><clipPath id="36a487d553"><path d="M 402.074219 45.082031 L 4.175781 380.636719 L -58.195312 306.675781 L 339.703125 -28.878906 Z M 402.074219 45.082031 " clip-rule="nonzero"/></clipPath><clipPath id="5993f58a7f"><path d="M 402.074219 45.082031 L -51.4375 427.539062 L -113.808594 353.578125 L 339.703125 -28.878906 Z M 402.074219 45.082031 " clip-rule="nonzero"/></clipPath><clipPath id="04894c44d7"><path d="M 0 163 L 181 163 L 181 375 L 0 375 Z M 0 163 " clip-rule="nonzero"/></clipPath><clipPath id="1a4c0ead6b"><path d="M 402.074219 45.082031 L -51.4375 427.539062 L -113.808594 353.578125 L 339.703125 -28.878906 Z M 402.074219 45.082031 " clip-rule="nonzero"/></clipPath><clipPath id="4e836fb145"><path d="M 402.074219 45.082031 L 4.175781 380.636719 L -58.195312 306.675781 L 339.703125 -28.878906 Z M 402.074219 45.082031 " clip-rule="nonzero"/></clipPath><clipPath id="48560cd33c"><path d="M 402.074219 45.082031 L -51.4375 427.539062 L -113.808594 353.578125 L 339.703125 -28.878906 Z M 402.074219 45.082031 " clip-rule="nonzero"/></clipPath><clipPath id="b42920b23e"><path d="M 181.027344 172.75 L -80.128906 392.988281 L -87.851562 383.835938 L 173.308594 163.597656 Z M 181.027344 172.75 " clip-rule="nonzero"/></clipPath><clipPath id="ebbdd4434f"><path d="M 14 178 L 192 178 L 192 330 L 14 330 Z M 14 178 " clip-rule="nonzero"/></clipPath><clipPath id="7cbd116ee6"><path d="M 402.074219 45.082031 L -51.4375 427.539062 L -113.808594 353.578125 L 339.703125 -28.878906 Z M 402.074219 45.082031 " clip-rule="nonzero"/></clipPath><clipPath id="4f5b60c07a"><path d="M 402.074219 45.082031 L 4.175781 380.636719 L -58.195312 306.675781 L 339.703125 -28.878906 Z M 402.074219 45.082031 " clip-rule="nonzero"/></clipPath><clipPath id="0fff2d9abe"><path d="M 402.074219 45.082031 L -51.4375 427.539062 L -113.808594 353.578125 L 339.703125 -28.878906 Z M 402.074219 45.082031 " clip-rule="nonzero"/></clipPath><clipPath id="568cd8a86e"><path d="M 69 150 L 167 150 L 167 233 L 69 233 Z M 69 150 " clip-rule="nonzero"/></clipPath><clipPath id="afab85944e"><path d="M 402.074219 45.082031 L -51.4375 427.539062 L -113.808594 353.578125 L 339.703125 -28.878906 Z M 402.074219 45.082031 " clip-rule="nonzero"/></clipPath><clipPath id="69becd3b43"><path d="M 402.074219 45.082031 L 4.175781 380.636719 L -58.195312 306.675781 L 339.703125 -28.878906 Z M 402.074219 45.082031 " clip-rule="nonzero"/></clipPath><clipPath id="7c01c2c7f1"><path d="M 402.074219 45.082031 L -51.4375 427.539062 L -113.808594 353.578125 L 339.703125 -28.878906 Z M 402.074219 45.082031 " clip-rule="nonzero"/></clipPath><clipPath id="4805d4478d"><path d="M 164 1 L 375 1 L 375 193 L 164 193 Z M 164 1 " clip-rule="nonzero"/></clipPath><clipPath id="5daefc9fab"><path d="M 402.074219 45.082031 L -51.4375 427.539062 L -113.808594 353.578125 L 339.703125 -28.878906 Z M 402.074219 45.082031 " clip-rule="nonzero"/></clipPath><clipPath id="b7ae49fe5b"><path d="M 402.074219 45.082031 L 4.175781 380.636719 L -58.195312 306.675781 L 339.703125 -28.878906 Z M 402.074219 45.082031 " clip-rule="nonzero"/></clipPath><clipPath id="7936f28dce"><path d="M 402.074219 45.082031 L -51.4375 427.539062 L -113.808594 353.578125 L 339.703125 -28.878906 Z M 402.074219 45.082031 " clip-rule="nonzero"/></clipPath></defs><g clip-path="url(#aea21ba579)"><g clip-path="url(#3be37afd8e)"><g clip-path="url(#36a487d553)"><g clip-path="url(#5993f58a7f)"><path fill="#000000" d="M 212.808594 202.039062 C 212.808594 202.039062 208.835938 197.695312 202.882812 191.175781 C 201.429688 189.5625 199.855469 187.8125 198.1875 185.964844 C 196.570312 184.074219 194.773438 182.195312 193.023438 180.140625 C 191.238281 178.121094 189.40625 176.039062 187.578125 173.890625 C 185.707031 171.777344 183.890625 169.566406 182.046875 167.378906 C 180.132812 165.246094 178.445312 162.933594 176.59375 160.804688 C 174.824219 158.605469 173.082031 156.4375 171.394531 154.347656 C 169.675781 152.265625 168.152344 150.15625 166.578125 148.230469 C 164.992188 146.308594 163.59375 144.421875 162.246094 142.707031 C 160.953125 140.957031 159.589844 139.441406 158.535156 138.007812 C 157.484375 136.570312 156.484375 135.351562 155.675781 134.335938 C 154.050781 132.3125 153.019531 131.1875 153.019531 131.1875 C 153.019531 131.1875 153.355469 132.648438 154.121094 135.148438 C 154.878906 137.652344 156 141.238281 157.890625 145.289062 C 158.792969 147.339844 159.738281 149.59375 161 151.820312 C 162.242188 154.0625 163.472656 156.488281 164.996094 158.835938 C 166.527344 161.175781 168.039062 163.660156 169.8125 166.007812 C 171.582031 168.355469 173.339844 170.78125 175.300781 173.039062 C 179.160156 177.609375 183.308594 181.933594 187.507812 185.644531 C 189.550781 187.554688 191.71875 189.203125 193.707031 190.820312 C 195.765625 192.363281 197.722656 193.792969 199.613281 195.011719 C 201.457031 196.28125 203.234375 197.328125 204.824219 198.222656 C 206.378906 199.160156 207.84375 199.832031 209.007812 200.421875 C 211.375 201.558594 212.808594 202.039062 212.808594 202.039062 " fill-opacity="1" fill-rule="nonzero"/></g></g></g></g><g clip-path="url(#04894c44d7)"><g clip-path="url(#1a4c0ead6b)"><g clip-path="url(#4e836fb145)"><g clip-path="url(#48560cd33c)"><g clip-path="url(#b42920b23e)"><path fill="#000000" d="M 173.230469 163.796875 L -83.980469 388.421875 L 180.832031 172.8125 Z M 173.230469 163.796875 " fill-opacity="1" fill-rule="nonzero"/></g></g></g></g></g><g clip-path="url(#ebbdd4434f)"><g clip-path="url(#7cbd116ee6)"><g clip-path="url(#4f5b60c07a)"><g clip-path="url(#0fff2d9abe)"><path fill="#000000" d="M 185.957031 178.890625 L 14.394531 329.359375 L 191.660156 185.652344 Z M 185.957031 178.890625 " fill-opacity="1" fill-rule="nonzero"/></g></g></g></g><g clip-path="url(#568cd8a86e)"><g clip-path="url(#afab85944e)"><g clip-path="url(#69becd3b43)"><g clip-path="url(#7c01c2c7f1)"><path fill="#000000" d="M 162.332031 150.875 L 69.777344 232.78125 L 166.132812 155.382812 Z M 162.332031 150.875 " fill-opacity="1" fill-rule="nonzero"/></g></g></g></g><g clip-path="url(#4805d4478d)"><g clip-path="url(#5daefc9fab)"><g clip-path="url(#b7ae49fe5b)"><g clip-path="url(#7936f28dce)"><path fill="#000000" d="M 164.246094 121.71875 C 164.410156 121.5625 164.953125 121.042969 165.84375 120.207031 C 171.253906 115.113281 189.433594 98.164062 212.378906 78.617188 C 228.414062 64.957031 246.78125 50.023438 264.738281 36.984375 C 272.839844 31.101562 280.859375 25.605469 288.546875 20.78125 C 310.351562 7.101562 328.042969 2.332031 341.351562 1.558594 C 348.457031 1.148438 354.3125 1.878906 358.871094 2.996094 C 365.089844 4.523438 368.902344 6.78125 370.203125 7.863281 C 370.285156 7.9375 370.394531 8.042969 370.5 8.164062 C 370.695312 8.382812 370.890625 8.636719 370.996094 8.804688 C 372.058594 10.539062 374.140625 16.144531 374.054688 24.871094 C 374.015625 28.75 373.546875 33.242188 372.375 38.285156 C 369.355469 51.28125 361.644531 67.925781 344.480469 87.109375 C 338.449219 93.847656 331.699219 100.804688 324.5625 107.773438 C 308.714844 123.242188 290.9375 138.796875 274.785156 152.285156 C 251.675781 171.582031 231.894531 186.65625 225.855469 191.207031 C 224.863281 191.957031 224.242188 192.417969 224.035156 192.570312 C 222.238281 194.84375 213.558594 185.316406 212.042969 183.847656 C 204.132812 176.1875 196.75 167.84375 189.695312 159.398438 C 183.589844 152.09375 177.578125 144.644531 172.113281 136.832031 C 171.265625 135.628906 170.4375 134.414062 169.621094 133.191406 C 165.375 126.824219 163.265625 122.535156 164.246094 121.71875 " fill-opacity="1" fill-rule="nonzero"/></g></g></g></g></svg>