<?xml version="1.0" encoding="UTF-8" standalone="no"?>
<svg xmlns="http://www.w3.org/2000/svg" width="512" height="512" viewBox="0 0 512 512">
  <defs>
    <style>
      .stroke { fill: none; stroke: #000000; stroke-width: 18; stroke-linecap: round; stroke-linejoin: round; }
    </style>
  </defs>

  <!-- Rounded square border -->
  <rect x="32" y="32" width="448" height="448" rx="64" ry="64" class="stroke"/>

  <!-- Central padlock symbol -->
  <rect x="186" y="230" width="140" height="120" rx="20" ry="20" class="stroke"/>
  <path d="M226 230 v-40 a30 30 0 0 1 60 0 v40" class="stroke"/>
  <circle cx="256" cy="292" r="18" fill="none" stroke="#000000" stroke-width="14"/>

  <!-- Circuit traces radiating outward -->
  <!-- Left side circuits -->
  <path class="stroke" d="M186 270 H120"/>
  <path class="stroke" d="M186 310 H100"/>
  <path class="stroke" d="M186 350 H120"/>
  <circle cx="100" cy="270" r="8" fill="#000000"/>
  <circle cx="80" cy="310" r="8" fill="#000000"/>
  <circle cx="100" cy="350" r="8" fill="#000000"/>

  <!-- Right side circuits -->
  <path class="stroke" d="M326 270 H392"/>
  <path class="stroke" d="M326 310 H412"/>
  <path class="stroke" d="M326 350 H392"/>
  <circle cx="412" cy="270" r="8" fill="#000000"/>
  <circle cx="432" cy="310" r="8" fill="#000000"/>
  <circle cx="412" cy="350" r="8" fill="#000000"/>

  <!-- Top and bottom vertical traces -->
  <path class="stroke" d="M256 230 V120"/>
  <circle cx="256" cy="100" r="10" fill="#000000"/>
  <path class="stroke" d="M256 350 V420"/>
  <circle cx="256" cy="440" r="10" fill="#000000"/>

  <!-- Decorative angled sub-traces to simulate electronic density -->
  <path class="stroke" d="M326 250 L392 200"/>
  <path class="stroke" d="M186 250 L120 200"/>
  <path class="stroke" d="M326 370 L392 420"/>
  <path class="stroke" d="M186 370 L120 420"/>

  <!-- Tiny connection nodes -->
  <circle cx="392" cy="200" r="6" fill="#000000"/>
  <circle cx="120" cy="200" r="6" fill="#000000"/>
  <circle cx="392" cy="420" r="6" fill="#000000"/>
  <circle cx="120" cy="420" r="6" fill="#000000"/>

</svg>
